<?xml version="1.0" standalone="no"?>
<!DOCTYPE svg PUBLIC "-//W3C//DTD SVG 20010904//EN"
 "http://www.w3.org/TR/2001/REC-SVG-20010904/DTD/svg10.dtd">
<svg version="1.0" xmlns="http://www.w3.org/2000/svg"
 width="300.000000pt" height="300.000000pt" viewBox="0 0 300.000000 300.000000"
 preserveAspectRatio="xMidYMid meet">

<g transform="translate(0.000000,300.000000) scale(0.100000,-0.100000)"
fill="#000000" stroke="none">
<path d="M0 1712 l0 -1288 70 -53 c38 -30 70 -59 70 -65 0 -6 -7 -3 -14 7 -15
19 -31 23 -20 4 4 -6 4 -9 -1 -5 -4 4 -14 3 -22 -3 -10 -9 -12 -5 -9 20 2 20
-1 30 -8 28 -13 -4 -15 -35 -4 -58 5 -12 3 -16 -10 -15 -13 1 -18 -8 -20 -39
-2 -22 -8 -45 -14 -52 -5 -7 -7 -17 -3 -23 12 -19 25 0 26 38 l2 37 7 -40 c4
-22 8 -31 9 -20 2 12 5 15 8 7 3 -7 0 -19 -7 -26 -7 -9 -7 -16 -1 -20 5 -4 12
-2 16 4 8 13 25 13 25 -1 0 -5 -4 -8 -9 -5 -5 4 -11 1 -13 -5 -3 -9 -9 -9 -25
0 -15 7 -24 8 -28 1 -4 -6 -11 -7 -17 -4 -6 4 -6 -1 1 -14 7 -13 8 -23 1 -27
-16 -10 -9 -75 9 -75 13 0 13 2 2 9 -9 6 -10 11 -2 15 6 4 11 2 11 -4 0 -6 4
-9 9 -5 5 3 13 0 17 -6 4 -8 3 -9 -4 -5 -7 4 -12 3 -12 -3 0 -5 -8 -12 -18
-14 -9 -2 657 -5 1481 -6 l1497 -1 0 1500 0 1500 -1500 0 -1500 0 0 -1288z
m1065 882 c61 -3 116 -11 124 -17 27 -22 53 -99 58 -173 l6 -74 -47 6 c-54 8
-130 -17 -146 -46 -13 -25 -13 -33 1 -24 7 4 4 -6 -5 -22 -16 -27 -23 -30 -72
-30 -30 0 -54 4 -54 9 0 4 -17 15 -37 24 -45 18 -213 14 -251 -6 -13 -7 -27
-11 -31 -9 -14 6 29 211 56 264 26 51 69 87 108 91 11 1 31 6 45 11 14 6 50 8
80 6 30 -2 104 -6 165 -10z m195 -329 c0 -12 -15 -15 -72 -15 -66 1 -71 2 -54
15 27 21 126 21 126 0z m1380 -34 c0 -6 -4 -13 -10 -16 -5 -3 -10 1 -10 9 0 9
5 16 10 16 6 0 10 -4 10 -9z m-1735 -21 c17 -19 18 -27 7 -78 -17 -79 -36 -96
-114 -96 -35 0 -74 6 -86 13 -30 16 -52 68 -52 121 0 52 15 59 136 59 79 1 93
-2 109 -19z m317 14 c21 -4 35 -11 32 -16 -4 -6 -6 -48 -5 -94 l2 -84 -70 0
c-89 0 -112 16 -118 87 -10 96 36 127 159 107z m1698 -44 c0 -5 -4 -10 -10
-10 -5 0 -10 5 -10 10 0 6 5 10 10 10 6 0 10 -4 10 -10z m-2352 -12 c5 -7 15
-32 21 -55 16 -58 24 -54 16 7 -6 42 -4 50 9 50 10 0 19 -15 26 -42 22 -88 43
-106 136 -115 98 -10 143 21 159 110 9 45 33 61 70 47 20 -8 26 -15 22 -30 -3
-11 -1 -55 5 -97 10 -72 9 -78 -10 -94 -26 -21 -19 -29 16 -20 21 6 28 14 30
39 2 17 -2 40 -7 51 -11 19 -10 19 22 3 22 -12 55 -17 105 -16 69 0 73 -1 69
-20 -3 -12 -10 -52 -17 -91 -27 -162 -31 -175 -83 -253 -62 -91 -95 -112 -182
-112 -91 0 -129 15 -208 83 l-72 61 51 -59 c78 -90 157 -162 199 -179 21 -9
61 -16 89 -16 47 0 54 -3 83 -39 l32 -38 -62 -19 c-78 -24 -203 -24 -273 0
-108 36 -184 105 -184 168 0 29 26 62 41 52 6 -4 8 23 3 73 -9 117 -11 125
-24 158 -6 17 -18 73 -25 125 -9 60 -13 76 -12 45 1 -48 -1 -52 -31 -46 -14 2
-62 108 -71 157 -16 83 21 155 57 112z m2172 -178 c0 -5 -4 -10 -10 -10 -5 0
-10 5 -10 10 0 6 5 10 10 10 6 0 10 -4 10 -10z m-462 -246 c29 -33 28 -65 -2
-94 -71 -66 -193 10 -135 84 41 52 96 56 137 10z m-455 8 c32 -35 38 -68 16
-96 -16 -21 -29 -26 -63 -26 -46 0 -69 17 -79 59 -6 25 7 60 27 73 21 14 83 8
99 -10z m317 -412 c0 -5 -13 -16 -30 -25 -16 -9 -30 -13 -30 -9 0 4 -7 0 -17
-7 -40 -34 -223 -2 -223 39 0 15 13 17 150 14 83 -2 150 -7 150 -12z m-318
-842 c-6 -23 -15 -29 -30 -19 -18 11 -4 40 17 38 12 -1 17 -7 13 -19z m-1762
-229 c0 -8 5 -7 15 1 12 10 19 10 27 2 8 -8 5 -14 -13 -20 -13 -5 -30 -7 -36
-5 -15 6 -17 33 -3 33 6 0 10 -5 10 -11z m39 -46 c-8 -10 -9 -14 -2 -10 14 9
27 -8 18 -23 -4 -6 -12 -5 -21 4 -17 18 -18 33 -1 39 20 9 20 8 6 -10z m-39
-101 c0 -1 -9 -13 -20 -24 -15 -17 -17 -24 -8 -30 9 -5 8 -8 -4 -8 -19 0 -25
25 -8 35 5 3 7 11 4 18 -3 8 4 13 16 13 11 0 20 -2 20 -4z m59 -46 c-9 -8 -10
-8 -5 2 6 9 0 11 -23 7 -35 -6 -45 4 -23 25 14 13 15 13 10 -1 -5 -12 -1 -15
18 -11 13 2 25 12 25 21 1 9 4 5 6 -8 3 -13 -1 -28 -8 -35z m0 -35 c0 -10 -2
-11 -6 -3 -2 6 -8 10 -12 8 -4 -3 -8 1 -8 8 0 8 6 12 14 9 7 -3 13 -13 12 -22z"/>
<path d="M736 2330 c-34 -11 -66 -38 -66 -56 0 -11 6 -11 28 -2 25 10 161 14
207 6 11 -1 20 3 20 10 0 6 -4 12 -10 13 -5 0 -18 8 -28 16 -20 19 -109 27
-151 13z"/>
<path d="M745 2204 c-16 -8 -22 -12 -13 -10 64 18 84 17 111 -4 20 -16 25 -17
21 -6 -3 9 -10 16 -16 16 -5 0 -7 3 -5 8 9 14 -68 11 -98 -4z"/>
<path d="M775 2171 c-8 -27 12 -63 33 -59 12 2 17 13 17 38 0 28 -4 36 -22 38
-14 2 -23 -3 -28 -17z"/>
<path d="M1175 2200 c17 -4 39 -11 50 -14 13 -5 12 -2 -5 8 -14 8 -36 15 -50
15 -23 -1 -22 -2 5 -9z"/>
<path d="M1109 2183 c-13 -17 -13 -17 6 -3 11 8 22 16 24 17 2 2 0 3 -6 3 -6
0 -17 -8 -24 -17z"/>
<path d="M1146 2175 c-20 -21 -21 -49 -1 -65 20 -16 45 3 45 35 0 34 -24 50
-44 30z"/>
<path d="M527 2123 c-4 -3 -7 -11 -7 -17 0 -6 5 -4 10 4 17 25 39 -13 33 -58
-3 -23 2 -51 12 -72 9 -21 13 -25 10 -10 -4 14 -9 41 -12 60 -3 28 -2 32 7 20
16 -22 2 28 -16 58 -15 23 -26 27 -37 15z"/>
<path d="M602 2020 c0 -14 2 -19 5 -12 2 6 2 18 0 25 -3 6 -5 1 -5 -13z"/>
<path d="M890 1951 c0 -6 4 -13 10 -16 6 -3 7 1 4 9 -7 18 -14 21 -14 7z"/>
<path d="M938 1943 c6 -2 18 -2 25 0 6 3 1 5 -13 5 -14 0 -19 -2 -12 -5z"/>
<path d="M903 1783 c43 -2 110 -2 150 0 40 1 5 3 -78 3 -82 0 -115 -2 -72 -3z"/>
<path d="M944 1705 c11 -8 29 -15 41 -15 12 0 30 7 41 15 17 13 14 14 -41 14
-55 0 -58 -1 -41 -14z"/>
<path d="M2182 1748 c-7 -7 -12 -28 -12 -48 0 -41 14 -60 47 -60 26 0 43 27
43 67 0 34 -16 53 -45 53 -12 0 -26 -5 -33 -12z m38 -28 c0 -5 -4 -10 -10 -10
-5 0 -10 5 -10 10 0 6 5 10 10 10 6 0 10 -4 10 -10z"/>
<path d="M1754 1735 c-12 -18 -14 -31 -7 -51 20 -59 75 -56 81 4 7 66 -42 96
-74 47z m41 -15 c3 -5 1 -10 -4 -10 -6 0 -11 5 -11 10 0 6 2 10 4 10 3 0 8 -4
11 -10z"/>
<path d="M3 386 c2 -6 9 -11 15 -11 5 0 14 -3 18 -7 16 -17 26 -7 11 10 -18
20 -50 26 -44 8z"/>
<path d="M16 362 c-3 -5 1 -15 9 -22 21 -17 27 -9 10 13 -7 10 -16 14 -19 9z"/>
<path d="M6 304 c-3 -7 2 -10 15 -7 22 6 26 20 4 20 -8 0 -16 -6 -19 -13z"/>
<path d="M5 231 c-3 -5 -1 -12 5 -16 5 -3 10 1 10 9 0 18 -6 21 -15 7z"/>
</g>
</svg>
