<?xml version="1.0" standalone="no"?>
<!DOCTYPE svg PUBLIC "-//W3C//DTD SVG 20010904//EN"
 "http://www.w3.org/TR/2001/REC-SVG-20010904/DTD/svg10.dtd">
<svg version="1.0" xmlns="http://www.w3.org/2000/svg"
 width="640.000000pt" height="640.000000pt" viewBox="0 0 640.000000 640.000000"
 preserveAspectRatio="xMidYMid meet">

<g transform="translate(0.000000,640.000000) scale(0.100000,-0.100000)"
fill="#000000" stroke="none">
<path d="M1 4878 c1 -900 5 -1480 10 -1418 18 221 86 562 150 745 246 703 653
1237 1266 1658 417 286 984 484 1513 526 63 5 -510 9 -1417 10 l-1523 1 1
-1522z"/>
<path d="M3385 6393 c547 -33 1071 -201 1518 -485 396 -253 692 -541 958 -933
51 -75 71 -106 122 -195 51 -90 150 -297 196 -412 113 -283 188 -613 214 -943
2 -22 4 638 5 1468 l2 1507 -1532 -2 c-843 -1 -1510 -3 -1483 -5z"/>
<path d="M3005 5670 c-281 -20 -619 -111 -790 -213 -137 -81 -209 -145 -265
-234 -84 -133 -118 -311 -90 -481 36 -228 125 -506 215 -677 58 -111 58 -108
70 -425 8 -211 14 -248 52 -360 38 -114 43 -148 22 -161 -9 -5 -10 -9 -2 -9
14 0 11 -23 -5 -43 -7 -8 -12 -19 -11 -23 4 -22 -2 -34 -16 -34 -9 0 -28 -11
-43 -25 -23 -22 -41 -29 -63 -27 -3 1 -5 -16 -3 -38 2 -40 -5 -48 -51 -57 -11
-2 -21 -7 -23 -12 -2 -5 -11 -7 -21 -4 -9 2 -28 -4 -40 -15 -19 -15 -22 -22
-13 -38 10 -19 -4 -54 -22 -54 -14 0 -76 -52 -71 -60 6 -9 -29 -20 -66 -20
-14 0 -40 -5 -58 -11 -30 -11 -31 -13 -31 -68 l0 -57 -184 -140 c-101 -76
-182 -143 -179 -148 4 -5 1 -6 -5 -2 -6 3 -16 0 -24 -7 -7 -7 -28 -23 -45 -35
-89 -63 -133 -195 -102 -307 24 -86 116 -176 195 -191 26 -5 39 -16 59 -50 14
-24 35 -50 48 -59 16 -11 19 -19 12 -29 -57 -77 -69 -101 -73 -149 -4 -51 12
-137 26 -137 4 0 19 22 33 48 36 65 176 252 194 258 8 4 15 12 15 19 0 15 28
29 50 26 13 -2 13 -1 0 9 -13 8 -11 11 8 16 14 4 21 12 18 20 -3 8 0 11 8 8 9
-3 22 12 37 41 13 25 51 76 86 113 35 37 79 86 98 109 20 24 42 43 50 43 7 0
15 3 17 8 2 4 27 29 56 55 44 41 58 48 80 43 21 -5 24 -4 12 4 -11 9 -7 10 20
5 22 -4 30 -3 22 3 -10 7 -7 13 12 25 14 10 30 17 36 17 5 0 10 5 10 11 0 6 7
9 14 6 10 -4 13 -1 10 8 -4 9 7 19 31 29 26 11 35 20 31 31 -3 9 1 18 9 21 8
4 15 12 15 20 0 8 4 14 9 14 5 0 12 9 16 19 3 11 32 54 65 97 58 75 114 124
144 124 9 0 16 5 16 11 0 5 5 7 10 4 7 -4 3 -14 -10 -25 -11 -9 -20 -22 -20
-28 0 -6 -8 -16 -17 -21 -16 -9 -16 -12 -3 -22 13 -9 12 -10 -3 -5 -12 4 -20
-2 -27 -19 -5 -14 -15 -25 -22 -25 -9 0 -8 -3 2 -10 11 -7 11 -10 2 -10 -13 0
-72 -59 -72 -72 0 -4 5 -10 11 -13 6 -5 4 -12 -8 -21 -16 -12 -16 -15 -3 -24
12 -9 10 -10 -7 -5 -18 5 -22 3 -17 -9 4 -9 -5 -40 -19 -70 -37 -77 -44 -122
-20 -129 10 -4 26 -12 36 -19 14 -11 19 -10 28 2 9 12 10 10 6 -7 -4 -18 2
-27 24 -40 37 -22 37 -29 -6 -43 -25 -8 -35 -17 -35 -33 -1 -75 2 -91 21 -108
19 -16 19 -18 2 -22 -17 -5 -17 -5 0 -6 10 0 15 -5 12 -11 -3 -5 -2 -10 3 -10
6 0 9 -13 8 -29 -1 -20 2 -27 11 -24 7 3 13 -2 13 -11 0 -23 17 -20 31 5 10
19 8 20 -10 14 -16 -5 -20 -3 -15 9 3 9 11 16 17 16 6 0 7 3 4 6 -4 4 -14 1
-24 -7 -15 -12 -16 -12 -10 4 3 9 2 17 -4 17 -6 0 -8 4 -5 9 3 5 15 7 25 4 10
-3 22 1 26 8 5 8 4 10 -3 5 -7 -4 -20 -2 -29 3 -16 9 -16 10 -2 11 19 0 31 23
23 43 -3 8 1 14 8 15 7 0 26 3 41 5 21 3 27 1 23 -9 -3 -8 1 -14 8 -14 8 0 16
-6 19 -13 6 -17 -3 -69 -16 -85 -7 -8 -5 -12 7 -12 9 0 16 6 16 13 1 19 30
-25 30 -45 0 -10 -4 -18 -10 -18 -5 0 -10 -7 -10 -16 0 -13 3 -14 14 -5 11 9
15 7 21 -11 14 -43 13 -48 -3 -48 -11 0 -13 -3 -6 -8 6 -4 14 -16 17 -27 7
-18 6 -19 -6 -3 -8 10 -17 15 -20 11 -4 -3 -7 1 -7 10 0 9 -5 17 -10 17 -6 0
-10 7 -8 16 2 11 -5 18 -22 21 -24 3 -24 3 -5 -11 11 -9 16 -16 12 -16 -4 0 2
-10 13 -22 11 -12 18 -28 15 -36 -2 -7 1 -12 8 -11 15 2 57 -12 57 -18 0 -3
-10 -14 -22 -24 -23 -20 -23 -20 -1 -10 29 14 33 14 33 -4 0 -9 -9 -15 -25
-15 -14 0 -25 -4 -25 -9 0 -5 -8 -12 -17 -14 -14 -4 -12 -5 5 -6 12 0 22 3 22
7 0 4 9 8 20 9 11 1 19 -1 19 -5 -1 -4 0 -9 1 -12 5 -13 26 -169 32 -247 2
-22 18 -33 18 -13 0 6 16 10 35 10 37 0 48 -15 18 -24 -10 -2 5 -3 32 0 39 3
45 2 28 -6 -13 -5 -23 -14 -23 -19 0 -5 -8 -7 -19 -4 -10 3 -22 0 -25 -6 -4
-6 -1 -9 7 -5 8 3 18 1 22 -5 4 -7 10 -7 19 2 8 6 12 15 9 20 -7 12 32 8 47
-5 12 -11 12 -10 1 4 -17 22 -6 57 11 40 18 -18 28 -14 28 9 0 11 4 18 10 14
5 -3 7 -11 4 -18 -3 -8 9 -12 36 -12 39 -1 53 8 28 18 -7 3 -8 6 -3 6 6 0 16
-3 24 -8 12 -8 12 -12 2 -25 -15 -18 -38 -21 -43 -6 -2 7 -10 6 -21 -2 -15
-12 -13 -13 17 -15 19 -2 38 2 41 8 5 7 11 7 19 0 9 -8 18 -6 32 5 18 15 18
15 -3 9 -17 -5 -23 -2 -23 10 0 10 5 13 11 9 7 -4 25 -7 40 -6 16 0 31 -4 34
-9 8 -12 46 -11 65 1 11 8 8 9 -12 4 -34 -7 -37 3 -5 15 21 8 21 9 -13 24 -28
13 -29 15 -8 11 32 -7 71 25 57 47 -6 10 -9 11 -9 2 0 -7 -4 -13 -10 -13 -5 0
-9 3 -7 8 2 8 -1 9 -60 27 -31 9 -42 10 -40 1 1 -6 -6 -10 -15 -10 -10 1 -19
-4 -19 -12 -3 -28 -4 -32 -13 -41 -5 -4 -6 -3 -2 4 9 17 -29 26 -52 12 -11 -7
-18 -19 -15 -26 7 -19 -12 -16 -28 4 -8 10 -9 14 -2 10 14 -9 27 9 17 24 -4 8
-9 7 -15 -2 -6 -10 -12 -9 -28 6 -12 10 -19 21 -16 23 3 3 11 -3 19 -13 12
-17 13 -17 19 4 3 11 2 19 -2 17 -3 -2 -15 3 -26 11 -20 15 -20 15 2 8 18 -5
22 -3 17 9 -12 31 6 15 19 -16 10 -25 15 -29 19 -16 4 10 -2 26 -16 41 -32 35
-39 65 -16 77 24 13 27 13 33 -5 4 -8 1 -17 -5 -21 -7 -5 -8 -2 -3 6 5 8 3 11
-6 8 -8 -3 -12 -14 -11 -24 5 -27 12 -31 23 -14 7 11 8 9 7 -10 -2 -19 2 -25
15 -24 9 1 17 -2 17 -7 0 -5 -4 -9 -10 -9 -14 0 -32 -39 -24 -51 4 -8 10 -6
16 5 7 12 14 14 27 6 10 -5 21 -6 25 -3 4 4 -6 13 -21 20 l-28 13 28 -4 c22
-3 25 -1 16 10 -9 11 -8 14 4 14 9 0 19 4 22 10 3 6 -1 7 -9 4 -9 -3 -16 -1
-16 5 0 6 7 11 15 11 7 0 19 8 24 18 9 15 10 15 11 -4 0 -13 8 -24 20 -27 13
-3 20 0 20 9 0 8 5 14 11 14 6 0 9 -6 6 -14 -7 -18 22 -31 37 -16 7 7 5 10 -8
10 -9 0 -14 5 -11 10 5 8 11 7 20 0 15 -12 35 -6 35 10 0 5 -8 6 -17 3 -16 -6
-17 -5 -3 12 15 18 14 18 -12 1 -18 -12 -28 -14 -33 -6 -5 8 -12 6 -25 -5 -11
-10 -20 -12 -24 -6 -4 5 2 14 11 20 17 10 17 10 1 11 -10 0 -18 5 -18 11 0 6
7 8 16 5 10 -4 25 3 41 20 13 14 27 24 30 20 3 -3 -6 -15 -21 -27 -24 -19 -26
-23 -12 -31 18 -10 39 -2 31 12 -3 5 0 12 6 16 12 7 31 -19 36 -50 2 -11 6
-22 10 -25 3 -3 3 12 0 34 -4 22 -11 41 -17 43 -19 7 -10 22 11 19 12 -1 24 4
26 11 3 8 -1 10 -13 5 -12 -4 -15 -3 -10 5 4 7 2 12 -6 12 -7 0 0 12 16 26 16
14 35 23 43 20 8 -3 21 -6 29 -6 25 0 15 -15 -18 -29 -23 -10 -28 -15 -17 -18
19 -5 14 -44 -5 -42 -6 1 -18 1 -25 0 -30 -2 9 -25 47 -28 33 -2 35 0 19 12
-14 10 -15 14 -5 18 10 4 10 6 1 6 -24 2 -13 17 22 31 39 15 48 31 13 22 -21
-5 -22 -4 -9 11 9 12 10 17 2 17 -7 0 -9 5 -6 10 11 18 21 11 41 -28 16 -32
23 -38 39 -31 17 6 17 8 3 8 -10 1 -18 6 -18 12 0 5 5 7 11 4 5 -4 19 1 29 10
12 11 20 13 25 6 3 -6 -1 -11 -9 -11 -9 0 -16 -5 -16 -11 0 -6 7 -8 15 -5 8 3
22 9 30 12 8 3 15 2 15 -4 0 -6 -14 -13 -30 -17 -17 -4 -28 -11 -24 -16 3 -5
10 -7 15 -4 5 3 6 0 4 -8 -3 -7 -17 -18 -30 -23 l-24 -9 25 -30 c15 -19 22
-23 18 -11 -6 16 -4 18 10 13 10 -4 20 -7 22 -7 3 0 -4 -9 -15 -21 -10 -11
-18 -32 -16 -45 3 -27 -16 -32 -36 -8 -7 8 -21 13 -30 11 -10 -3 -20 1 -23 8
-4 12 -47 29 -43 16 1 -3 -2 -6 -8 -6 -5 0 -9 6 -7 13 2 6 -2 12 -8 12 -6 0
-8 -4 -5 -10 4 -6 -8 -10 -27 -10 -19 0 -40 -6 -47 -12 -10 -11 -11 -9 -5 6 7
18 6 18 -18 2 -14 -9 -34 -14 -44 -10 -16 5 -16 4 -4 -5 8 -6 23 -8 34 -5 13
4 16 2 11 -6 -5 -9 -1 -10 14 -5 12 3 21 3 20 -2 -4 -23 2 -35 16 -29 9 3 15
0 15 -9 0 -8 10 -21 22 -29 12 -9 19 -17 15 -17 -4 -1 -11 -2 -16 -3 -5 0 -12
-4 -16 -8 -4 -4 -14 -4 -23 -1 -10 4 -13 2 -8 -5 4 -7 20 -9 39 -6 29 5 30 4
14 -9 -17 -14 -16 -15 3 -20 11 -3 18 -1 14 4 -9 15 19 10 47 -9 18 -11 24
-23 20 -34 -4 -13 -10 -15 -21 -8 -8 5 -22 10 -30 10 -10 -1 -9 -4 5 -12 11
-6 22 -14 25 -17 3 -3 15 -15 28 -25 26 -22 30 -15 5 10 -12 12 -14 19 -6 21
7 3 10 10 7 16 -2 7 21 27 52 46 30 18 53 36 50 39 -4 3 -26 -8 -51 -26 -36
-25 -47 -29 -57 -18 -7 7 -28 19 -45 27 -18 7 -32 18 -32 24 3 25 -2 35 -17
35 -8 0 -12 5 -8 11 4 8 9 8 17 0 6 -6 19 -11 29 -11 10 0 21 -7 24 -15 10
-25 34 -17 34 10 0 14 -5 25 -11 25 -6 0 -9 -7 -6 -15 5 -12 0 -11 -29 3 -30
14 -32 17 -17 23 26 11 40 10 23 -1 -10 -6 -3 -8 23 -7 25 1 36 6 32 15 -2 6
0 12 4 12 18 0 20 -30 3 -47 -16 -16 -16 -16 1 -10 10 4 21 7 23 7 2 0 4 7 4
15 0 9 6 12 15 9 8 -4 15 -1 15 5 0 6 10 10 23 10 16 -1 18 -2 5 -6 -10 -2
-18 -9 -18 -14 0 -5 -6 -9 -14 -9 -7 0 -19 -7 -26 -15 -16 -19 -11 -19 27 0
32 16 91 7 64 -10 -8 -4 -17 -2 -22 6 -4 7 -11 10 -15 7 -3 -4 1 -15 11 -25
17 -16 19 -16 37 7 15 18 21 21 27 11 6 -9 11 -10 15 -2 8 12 -18 26 -32 17
-13 -8 -33 17 -24 30 9 14 45 27 37 14 -3 -6 -2 -10 4 -10 17 0 41 12 41 20 0
14 -31 20 -51 10 -12 -7 -19 -7 -19 -1 0 13 37 24 50 16 6 -4 23 1 38 11 53
36 71 43 76 31 3 -7 5 -5 4 3 -2 24 24 70 39 70 8 0 11 5 8 10 -4 6 -11 8 -16
5 -5 -4 -9 1 -9 9 0 8 5 18 10 21 6 4 9 1 8 -5 -3 -13 87 -44 105 -36 7 2 3 5
-8 6 l-20 1 20 10 c15 7 10 8 -20 4 -51 -6 -18 11 39 20 21 3 36 9 33 12 -3 3
-28 0 -56 -6 -50 -11 -81 -7 -81 10 0 5 5 9 10 9 6 0 10 -4 10 -9 0 -4 17 -4
39 2 38 10 38 11 20 31 -24 25 -17 32 13 12 32 -21 100 -5 92 22 -4 10 -2 13
3 7 17 -21 60 -35 113 -37 46 -3 59 -8 78 -31 22 -25 61 -40 47 -18 -3 5 0 13
6 17 9 5 10 -1 5 -22 -4 -16 -8 -40 -10 -54 -2 -14 -8 -45 -15 -70 -72 -261
-117 -470 -103 -470 19 1 27 20 30 70 1 30 6 69 11 85 8 24 9 16 9 -43 0 -40
2 -75 5 -79 16 -16 346 213 497 346 178 156 369 368 388 434 18 58 25 92 22
102 -1 6 -4 17 -5 25 -5 42 -18 88 -32 115 -15 29 -14 35 17 110 17 44 33 98
35 120 3 43 15 56 109 115 31 19 56 37 57 40 0 3 2 16 3 29 2 13 10 29 19 36
10 7 17 17 17 22 0 11 56 38 63 32 8 -7 37 23 31 32 -3 5 1 12 9 15 7 2 14 11
15 19 1 8 3 23 4 32 1 9 21 36 45 60 24 24 43 48 43 54 0 6 4 8 9 4 5 -3 12
-1 16 5 3 5 26 10 51 10 25 0 43 -4 40 -9 -3 -5 15 -8 41 -7 38 2 55 10 91 41
23 20 41 40 38 43 -3 2 -12 -1 -20 -7 -19 -16 -28 0 -30 53 0 22 -9 52 -19 66
-10 14 -28 41 -40 60 -24 37 -83 58 -115 41 -9 -5 -48 -12 -87 -16 -38 -3 -83
-9 -99 -12 l-29 -5 7 -77 c3 -42 9 -86 12 -99 4 -13 3 -22 -2 -21 -5 1 -16 -1
-25 -5 -17 -7 -89 29 -89 45 0 5 -7 9 -16 9 -12 0 -15 6 -11 21 6 22 -11 69
-25 69 -4 0 -8 15 -8 33 0 17 -10 65 -22 105 -20 70 -23 74 -48 69 -21 -5 -28
-1 -38 23 -9 20 -22 30 -48 34 -22 5 -32 11 -28 18 5 8 1 9 -11 5 -31 -13 -61
52 -36 79 14 14 -8 119 -30 143 -10 11 -19 27 -19 34 0 25 -24 34 -84 32 -43
-1 -61 -6 -68 -19 -6 -11 -16 -15 -30 -10 -11 3 -26 7 -32 9 -57 12 -66 18
-66 46 0 17 -8 33 -20 42 -16 11 -22 28 -25 66 -2 29 -10 60 -19 70 -9 10 -16
25 -16 35 0 9 -6 19 -14 22 -8 3 -24 28 -37 55 -13 27 -28 49 -32 49 -5 0 -7
6 -4 14 3 8 -5 37 -19 65 -13 28 -24 61 -24 74 0 34 -39 73 -72 72 -16 0 -28
4 -29 10 -3 28 4 77 21 145 67 269 77 609 24 800 -49 175 -111 292 -214 403
-64 69 -162 143 -230 175 -128 59 -244 92 -411 116 -132 19 -370 27 -514 16z
m-765 -338 c0 -5 -11 -14 -25 -20 -14 -6 -25 -16 -25 -22 0 -5 -9 -10 -20 -10
-11 0 -20 -7 -20 -15 0 -8 -13 -24 -29 -36 -47 -35 -116 -149 -108 -179 4 -17
-10 -30 -33 -30 -12 0 15 74 46 128 31 52 92 116 153 160 46 33 61 39 61 24z
m1275 -764 c49 -11 131 -43 190 -75 111 -61 252 -195 302 -288 18 -33 48 -90
67 -127 20 -37 43 -71 52 -76 11 -6 13 -11 5 -16 -6 -4 -11 -2 -11 4 0 6 -4 9
-9 6 -14 -9 0 -58 15 -52 8 3 14 0 15 -7 0 -7 2 -25 3 -42 2 -17 -6 -42 -16
-57 -14 -21 -18 -38 -14 -70 l5 -43 -14 39 c-8 21 -11 43 -7 50 9 15 10 56 1
56 -4 0 -9 -14 -11 -32 -2 -17 -10 -34 -18 -36 -12 -4 -13 -2 -4 9 6 8 9 33 6
57 -3 36 -9 45 -31 54 -14 5 -33 14 -41 18 -9 4 -49 13 -90 21 -70 12 -81 19
-113 63 -11 14 -29 19 -89 21 -41 1 -94 6 -118 10 -31 5 -45 4 -51 -6 -5 -8
-9 -9 -9 -3 0 13 -59 12 -79 -1 -9 -5 -16 -5 -18 2 -2 5 -15 8 -29 5 -16 -3
-23 -9 -20 -18 3 -8 -1 -14 -9 -14 -7 0 -16 -9 -20 -19 -8 -28 -66 -34 -241
-29 -124 4 -147 7 -162 23 -12 13 -13 16 -2 10 13 -7 13 -6 0 7 -15 15 -155
34 -146 20 2 -4 -41 -8 -96 -8 -55 -1 -96 1 -90 5 6 4 -9 6 -34 6 -45 0 -58
-9 -26 -19 9 -3 5 -4 -10 -2 -16 2 -33 -3 -39 -10 -6 -7 -31 -16 -55 -20 -52
-7 -57 -19 -11 -29 l32 -7 -40 -12 c-41 -13 -65 -11 -65 5 0 5 7 9 15 9 8 0
15 5 15 10 0 6 -9 10 -20 10 -22 0 -25 13 -11 56 5 16 15 51 22 77 8 27 21 56
29 65 8 9 23 29 33 45 19 30 40 37 30 10 -3 -11 2 -8 13 6 12 17 14 26 6 29
-7 2 -9 8 -6 14 4 6 10 5 15 -3 6 -10 13 -3 24 24 9 21 22 40 30 44 8 3 15 10
15 17 1 18 39 58 50 51 5 -3 10 2 10 12 0 26 98 88 186 118 119 41 157 46 322
44 89 -1 165 1 169 5 9 8 130 -1 198 -16z m-128 -584 c-3 -3 -12 -4 -19 -1 -8
3 -5 6 6 6 11 1 17 -2 13 -5z m-880 -30 c-3 -3 -12 -4 -19 -1 -8 3 -5 6 6 6
11 1 17 -2 13 -5z m643 -14 c0 -5 -4 -10 -10 -10 -5 0 -10 5 -10 10 0 6 5 10
10 10 6 0 10 -4 10 -10z m77 4 c-3 -3 -12 -4 -19 -1 -8 3 -5 6 6 6 11 1 17 -2
13 -5z m703 -9 c14 8 131 -26 124 -36 -2 -4 -16 -4 -29 1 -21 8 -25 7 -25 -10
0 -11 -5 -20 -11 -20 -5 0 -7 5 -3 12 5 7 2 9 -9 5 -19 -7 -42 17 -31 35 6 10
4 10 -7 2 -10 -7 -24 -7 -48 1 -21 8 -29 14 -20 17 8 3 22 1 32 -4 9 -5 22 -6
27 -3z m-1572 -9 c12 -4 22 -11 22 -16 0 -13 -18 -22 -22 -11 -1 4 -14 12 -27
16 -16 5 -21 4 -17 -4 4 -6 2 -11 -3 -11 -6 0 -11 -5 -11 -11 0 -8 4 -8 14 0
8 7 17 8 20 3 3 -4 -3 -14 -14 -22 -10 -7 -16 -20 -12 -28 3 -10 1 -13 -6 -8
-8 5 -12 -1 -13 -16 0 -22 -1 -22 -9 -3 -8 19 -9 19 -9 -3 -1 -12 3 -30 8 -40
31 -59 42 -95 32 -105 -7 -7 -7 -14 3 -21 7 -6 23 -46 36 -88 25 -83 63 -139
112 -164 33 -17 168 -45 181 -37 4 2 14 -1 22 -7 19 -16 203 -5 221 12 3 4 12
4 20 1 8 -3 14 0 14 6 0 6 8 11 18 11 9 0 23 9 30 21 28 44 111 216 122 254 7
22 15 47 18 55 3 8 6 17 7 20 9 36 32 80 43 85 15 6 42 -11 42 -27 0 -5 11
-34 25 -64 14 -30 25 -57 25 -61 0 -11 83 -168 116 -220 19 -29 31 -53 28 -53
-2 0 1 -6 8 -14 8 -8 19 -11 27 -6 8 4 24 5 35 0 41 -15 207 -20 293 -10 98
12 179 45 177 72 -1 9 4 14 11 12 17 -7 75 140 75 192 0 11 6 29 14 39 14 19
15 19 35 1 12 -11 21 -26 21 -35 1 -10 7 -5 16 12 9 16 12 37 8 49 -4 14 -2
18 5 14 6 -4 11 -12 11 -17 0 -5 9 -20 21 -32 33 -35 55 -87 67 -154 11 -63
11 -62 -35 -218 -8 -27 -20 -90 -28 -138 -15 -100 -36 -142 -66 -134 -15 4
-19 0 -19 -19 0 -14 -6 -35 -14 -47 -8 -12 -17 -49 -21 -82 -4 -33 -11 -76
-16 -95 -18 -65 -40 -212 -34 -230 6 -18 38 -28 150 -49 79 -14 103 -34 145
-117 39 -76 134 -180 175 -190 14 -3 25 -8 25 -11 0 -5 -13 -21 -55 -68 -60
-68 -73 -84 -67 -90 3 -3 -1 -5 -10 -5 -8 0 -21 -15 -29 -32 -8 -18 -19 -33
-26 -33 -6 0 -15 -3 -19 -7 -4 -5 -3 -8 3 -8 6 0 9 -9 6 -19 -3 -12 -11 -17
-19 -14 -8 3 -14 -1 -14 -10 0 -9 -5 -19 -11 -23 -7 -4 -9 0 -5 14 5 13 1 22
-10 26 -14 5 -15 4 -5 -8 9 -10 9 -16 1 -21 -8 -5 -8 -11 1 -21 9 -11 15 -11
25 -3 24 20 15 1 -16 -33 -16 -18 -30 -26 -30 -19 0 8 8 20 18 28 14 12 12 12
-8 0 -16 -10 -24 -23 -23 -36 2 -12 -2 -21 -8 -21 -5 0 -7 6 -3 13 5 8 2 7
-10 -2 -13 -11 -14 -16 -4 -22 10 -7 9 -9 -4 -9 -10 0 -18 5 -18 10 0 6 -5 10
-12 10 -9 0 -9 -3 0 -12 7 -7 12 -22 12 -34 0 -24 23 -37 51 -29 11 4 19 2 19
-4 0 -10 -38 -16 -63 -12 -5 1 -6 -3 -2 -9 3 -5 19 -8 35 -6 16 2 39 -3 50
-11 21 -15 27 -33 10 -33 -5 0 -10 7 -10 15 0 21 -24 19 -45 -5 -10 -11 -13
-20 -7 -20 6 0 14 5 17 10 12 19 26 10 20 -12 -6 -17 -4 -20 9 -15 10 4 19 1
22 -8 4 -8 9 -13 14 -10 4 2 5 -7 2 -20 -2 -14 -9 -25 -14 -25 -5 0 -6 5 -3
10 10 16 -16 42 -33 35 -9 -3 -19 0 -23 7 -4 7 -12 9 -16 4 -4 -5 -2 -11 5
-13 6 -3 12 -12 12 -20 0 -13 3 -13 15 -3 20 16 32 5 14 -12 -16 -16 -56 -21
-64 -8 -3 5 -13 6 -22 3 -13 -5 -15 -2 -11 15 4 15 2 19 -9 15 -11 -4 -14 0
-11 13 2 12 11 18 23 17 17 -1 17 1 -5 17 -24 18 -25 18 -50 -3 -25 -21 -26
-23 -8 -35 10 -7 18 -19 17 -25 0 -9 -2 -9 -6 1 -2 6 -19 12 -36 12 -20 0 -63
18 -112 46 -63 37 -166 84 -182 84 -2 0 -3 -11 -3 -23 0 -13 -9 -32 -20 -42
-16 -15 -22 -16 -35 -5 -13 11 -14 10 -9 -5 7 -17 6 -17 -19 0 -19 12 -27 13
-27 5 0 -7 -7 -10 -15 -6 -8 3 -15 0 -16 -7 0 -8 -2 -8 -6 1 -4 11 -8 11 -22
-1 -23 -20 -61 -28 -83 -16 -12 6 -18 6 -18 -1 0 -5 -14 -10 -31 -10 -19 0
-28 4 -24 11 5 7 2 7 -11 0 -28 -14 -114 -32 -125 -26 -5 4 -16 -1 -25 -10 -9
-9 -23 -14 -32 -10 -8 3 -22 -1 -32 -10 -9 -8 -35 -16 -58 -17 -24 -1 -43 -7
-46 -15 -3 -7 -13 -13 -21 -13 -9 0 -39 -7 -66 -16 -27 -9 -52 -14 -55 -11 -6
6 54 37 83 42 10 2 20 4 22 4 2 1 -3 9 -10 18 -8 9 -9 14 -3 10 16 -9 36 17
28 37 -9 25 -26 19 -19 -6 5 -20 4 -21 -5 -5 -6 9 -8 22 -5 27 8 13 -61 13
-86 -1 -22 -11 -43 -54 -40 -80 1 -13 -4 -15 -25 -11 -19 3 -22 7 -12 13 10 7
9 9 -4 9 -10 0 -18 2 -18 4 0 2 -3 12 -6 20 -5 12 -2 15 10 10 14 -5 16 0 14
27 -2 31 -13 48 -30 49 -4 0 -5 -7 -2 -14 5 -13 1 -13 -25 -3 -30 11 -47 34
-35 46 3 3 12 -3 20 -13 19 -27 18 -6 -2 22 -9 13 -22 21 -30 18 -8 -3 -14 1
-14 9 0 8 5 15 12 15 9 0 9 3 1 11 -6 6 -9 18 -6 25 3 8 -1 14 -8 14 -11 0
-11 2 0 9 12 8 12 12 -2 26 -19 19 -19 16 -8 73 8 40 7 42 -15 42 -13 0 -24
-7 -27 -17 -2 -10 -2 -3 0 15 6 45 -6 92 -22 92 -7 0 -15 7 -19 15 -4 12 -2
13 14 3 15 -10 22 -10 32 0 9 9 8 12 -9 12 -28 0 -46 24 -38 51 5 16 4 19 -5
14 -9 -5 -11 -4 -6 4 6 9 11 9 22 0 12 -10 12 -14 2 -20 -11 -7 -11 -9 0 -9 7
0 10 -4 7 -10 -3 -5 -2 -10 3 -10 17 0 10 54 -8 72 -13 12 -20 14 -23 5 -2 -7
-4 3 -3 20 1 24 6 33 19 33 9 0 17 5 17 11 0 6 -7 9 -15 5 -8 -3 -15 -1 -15 4
0 6 5 10 11 10 5 0 7 5 4 10 -3 6 0 10 7 11 9 0 10 2 1 5 -7 3 -9 12 -6 19 3
8 -3 22 -12 31 -11 12 -15 26 -11 46 3 15 1 28 -4 28 -5 0 -7 7 -4 15 4 8 10
15 16 15 5 0 6 -5 2 -11 -3 -6 0 -15 7 -20 12 -8 12 -11 -1 -20 -12 -8 -10 -9
8 -4 16 5 22 2 22 -10 0 -20 25 -47 35 -37 4 4 5 -13 1 -38 -5 -43 -5 -44 9
-20 8 14 14 20 15 14 0 -7 12 -15 28 -19 15 -4 21 -10 15 -12 -15 -5 -18 -43
-3 -43 5 0 7 7 4 15 -4 10 0 15 12 15 11 0 15 -3 9 -8 -6 -4 -10 -13 -9 -19 1
-7 2 -20 3 -29 0 -8 6 -12 11 -9 6 3 10 1 10 -5 0 -8 -9 -10 -26 -6 -17 5 -23
3 -19 -4 3 -5 12 -10 19 -10 8 0 16 -9 19 -20 6 -22 -8 -28 -16 -7 -4 9 -6 9
-6 -1 -1 -7 7 -16 17 -19 9 -4 22 -11 27 -15 6 -5 21 -17 34 -28 13 -11 37
-20 53 -20 15 0 28 -5 28 -10 0 -6 -6 -9 -12 -8 -7 2 -14 -8 -16 -22 -4 -24
-3 -24 15 -7 24 21 55 23 47 2 -5 -11 1 -15 22 -16 24 0 26 -2 10 -8 -27 -10
-11 -18 65 -34 77 -15 210 -6 338 23 47 11 95 22 106 24 11 2 38 13 60 25 21
12 45 21 51 21 7 0 14 4 16 8 2 5 31 27 66 51 71 48 84 76 17 37 -25 -15 -51
-26 -58 -25 -29 4 -39 -2 -33 -17 5 -13 1 -15 -21 -11 -16 4 -22 4 -15 1 17
-8 15 -27 -3 -20 -8 3 -19 -2 -24 -12 -9 -15 -10 -15 -11 3 -1 15 -3 16 -7 5
-8 -19 -23 -30 -46 -30 -10 0 -28 -9 -40 -20 -14 -14 -23 -17 -26 -9 -2 6 2
15 9 19 8 5 9 10 1 14 -6 4 -16 -2 -22 -12 -8 -12 -20 -17 -35 -14 -26 5 -31
25 -12 46 10 10 15 11 25 0 19 -18 53 -6 53 20 1 19 2 19 13 4 12 -15 14 -13
26 13 7 16 20 29 28 29 13 0 13 -3 3 -15 -10 -12 -10 -15 4 -15 9 0 16 5 16
10 0 6 6 10 14 10 8 0 16 7 20 15 3 8 10 15 17 15 6 0 8 -7 5 -16 -3 -8 -2
-12 4 -9 6 3 10 14 10 23 1 21 23 52 39 52 6 0 11 7 11 16 0 10 6 14 15 10 8
-3 15 -1 15 4 0 6 6 10 14 10 8 0 18 9 21 20 3 11 13 20 21 20 8 0 12 5 9 10
-3 6 2 11 12 11 17 1 17 2 1 6 -11 3 -18 14 -18 26 1 20 2 20 11 4 6 -9 14
-15 19 -12 6 4 5 14 -2 25 -7 10 -15 17 -19 14 -4 -2 -14 3 -22 11 -19 19 -27
19 -27 1 0 -8 7 -17 16 -20 9 -4 14 -9 11 -13 -4 -3 -14 0 -22 7 -13 11 -18
10 -30 -6 -8 -10 -15 -22 -15 -26 0 -5 -5 -8 -10 -8 -7 0 -7 6 0 19 14 27 13
29 -12 41 -21 10 -22 10 -5 -3 23 -19 6 -32 -35 -29 -15 1 -28 -3 -28 -8 0 -6
-5 -8 -10 -5 -18 11 -41 -16 -34 -38 6 -20 6 -20 -11 -4 -9 10 -14 24 -11 32
3 8 1 15 -4 15 -6 0 -10 -9 -10 -21 0 -13 -4 -18 -12 -13 -7 4 -8 3 -4 -5 4
-6 12 -9 17 -6 5 4 4 -6 -1 -21 -6 -15 -8 -29 -6 -32 3 -3 8 3 12 12 3 9 14
16 25 16 10 0 23 8 28 18 6 9 11 12 11 5 0 -6 -7 -19 -16 -28 -9 -9 -14 -24
-11 -36 4 -13 1 -19 -6 -16 -7 3 -11 9 -10 14 1 5 -11 10 -27 10 -25 0 -27 -3
-19 -18 12 -24 11 -29 -5 -29 -9 0 -12 7 -9 20 4 15 0 20 -13 20 -16 1 -15 3
6 16 16 10 18 13 5 8 -11 -4 -28 -7 -37 -8 -12 0 -14 -4 -8 -10 6 -6 9 -21 9
-35 -1 -21 -2 -22 -6 -6 -6 25 -22 45 -36 45 -5 0 -3 -8 5 -17 17 -21 21 -60
7 -68 -5 -4 -9 2 -9 12 0 15 -2 14 -16 -5 -8 -12 -20 -22 -25 -22 -6 0 -3 7 5
16 9 8 16 22 16 30 0 8 5 12 10 9 6 -3 10 -1 10 4 0 6 -4 11 -10 11 -5 0 -10
6 -10 14 0 8 -7 17 -16 20 -12 5 -14 13 -9 34 6 26 6 26 -9 7 -12 -17 -13 -22
0 -36 16 -18 19 -49 4 -49 -5 0 -7 6 -4 14 3 8 0 17 -6 21 -6 3 -10 3 -9 -2 1
-4 -3 -19 -8 -33 -10 -23 -12 -24 -19 -6 -5 13 -3 21 4 24 15 5 16 42 2 42 -5
0 -10 8 -10 17 0 14 -2 15 -12 4 -11 -10 -10 -15 5 -25 18 -14 24 -32 6 -21
-16 11 -59 13 -59 4 0 -5 5 -9 10 -9 6 0 10 -5 10 -11 0 -8 -5 -8 -15 1 -8 7
-15 19 -15 27 0 8 -5 11 -10 8 -7 -4 -6 -13 1 -26 10 -19 5 -39 -6 -27 -9 9
-10 61 -2 90 5 20 4 26 -6 23 -8 -4 -12 -22 -11 -50 1 -24 -4 -52 -12 -62 -12
-17 -13 -16 -7 4 4 16 0 25 -12 29 -13 6 -14 9 -3 16 10 7 10 11 1 15 -7 2
-13 9 -13 14 0 6 4 8 8 5 5 -3 9 1 9 8 0 8 -6 12 -14 9 -8 -3 -13 -21 -13 -45
0 -23 -4 -37 -10 -33 -5 3 -8 24 -6 45 2 22 -1 37 -5 34 -5 -3 -23 10 -39 28
-17 18 -30 27 -30 20 0 -6 6 -12 13 -12 8 0 8 -3 -2 -9 -12 -8 -12 -14 -3 -33
7 -13 10 -15 8 -5 -5 15 -3 16 15 6 19 -10 20 -12 4 -29 -9 -10 -24 -16 -36
-13 -13 4 -19 0 -19 -13 0 -16 -2 -15 -23 4 -18 17 -26 19 -35 10 -6 -6 -14
-9 -18 -6 -3 4 3 15 13 25 10 10 20 28 21 38 6 34 12 30 12 -8 0 -20 5 -37 11
-37 5 0 7 -6 3 -12 -6 -10 -4 -10 7 0 10 9 10 15 1 24 -7 7 -12 17 -12 22 0 6
4 4 10 -4 5 -8 12 -11 16 -7 4 4 0 15 -9 25 -9 10 -14 27 -11 39 3 11 0 24 -7
29 -9 5 -11 2 -6 -9 3 -9 2 -19 -3 -22 -6 -4 -11 2 -11 12 -1 17 -2 17 -6 0
-2 -9 -8 -15 -13 -12 -4 3 -13 -2 -20 -10 -10 -12 -9 -15 4 -15 20 0 20 -4 1
-40 -18 -35 -11 -64 13 -51 10 6 20 4 30 -6 17 -16 10 -29 -10 -17 -7 5 -17 9
-23 9 -25 2 -46 19 -41 32 4 8 3 20 -1 26 -4 7 -9 4 -13 -8 -6 -17 -8 -16 -28
5 -12 13 -22 20 -22 16 0 -5 -7 -3 -15 4 -12 10 -18 10 -30 0 -13 -11 -14 -10
-9 3 3 9 1 24 -5 34 -6 10 -11 12 -11 6 0 -23 -18 -14 -24 13 -6 21 -11 25
-30 20 -16 -4 -28 0 -37 11 -13 14 -12 15 6 6 21 -11 67 -1 48 10 -6 4 -19 4
-30 0 -11 -4 -6 4 12 20 17 15 22 24 13 21 -12 -4 -18 -1 -18 9 0 11 -7 14
-22 10 -23 -5 -23 -5 -3 11 19 15 19 17 2 30 -21 16 -20 67 1 74 15 5 16 -30
1 -45 -7 -7 -6 -12 5 -16 10 -4 13 -1 10 8 -4 10 2 13 23 12 27 -2 43 -13 43
-31 0 -4 -7 -6 -15 -2 -22 8 -18 -7 5 -22 22 -14 41 -8 39 11 0 9 -2 9 -6 0
-8 -22 -21 -14 -19 12 0 16 6 23 14 20 7 -3 10 0 7 5 -3 6 -3 10 2 10 4 0 15
13 24 28 12 22 13 30 3 39 -9 9 -17 6 -35 -13 -12 -13 -27 -24 -33 -24 -6 0
-5 4 3 9 7 5 11 14 7 20 -5 7 -1 8 10 4 13 -5 15 -2 10 15 -4 12 -2 30 4 42 9
16 8 20 -5 20 -8 0 -15 5 -15 11 0 5 -5 7 -10 4 -8 -5 -8 -11 -1 -19 21 -25 1
-54 -42 -62 -37 -6 -39 -8 -19 -15 12 -5 30 -6 40 -2 12 4 14 3 6 -6 -8 -9
-25 -8 -70 3 -38 9 -49 15 -31 15 19 1 26 5 21 13 -4 7 -3 8 4 4 16 -9 83 4
76 15 -3 5 0 9 7 9 8 0 8 4 -1 15 -7 8 -16 12 -21 9 -5 -3 -9 -1 -9 4 0 5 13
15 30 22 24 10 29 17 26 41 -2 16 1 29 5 29 5 0 9 9 9 21 0 11 5 17 10 14 6
-4 8 -11 5 -16 -10 -14 3 -11 25 8 11 10 20 24 20 31 0 8 6 11 13 8 6 -3 20
-9 30 -12 9 -4 17 -10 17 -15 0 -5 7 -6 14 -3 8 3 25 -4 37 -15 17 -16 25 -18
31 -9 6 10 8 9 8 -2 0 -11 3 -11 18 3 14 15 15 19 3 26 -22 14 10 19 159 26
74 4 137 8 140 10 4 2 28 -2 55 -10 61 -19 61 -19 85 5 11 11 20 16 20 10 0
-5 5 -10 11 -10 6 0 9 7 5 15 -13 34 10 11 29 -28 14 -30 26 -42 43 -43 21 -1
56 -34 46 -43 -2 -3 -11 5 -20 17 -8 12 -20 20 -25 17 -15 -10 -10 -25 6 -19
10 4 15 0 15 -12 0 -36 13 -45 43 -31 15 6 27 16 27 20 0 5 -4 5 -10 2 -12 -8
-13 -3 0 29 6 17 6 26 0 26 -6 0 -10 7 -10 16 0 8 -4 12 -10 9 -6 -3 -10 4
-10 17 0 13 -5 29 -12 36 -9 9 -9 12 0 12 7 0 12 9 12 21 0 15 -5 19 -15 15
-11 -4 -15 0 -13 11 2 9 -3 18 -11 21 -9 3 -11 0 -6 -9 5 -8 -1 -5 -12 6 -11
11 -19 23 -17 27 3 4 0 9 -6 13 -5 3 -10 1 -10 -6 0 -7 -6 -5 -14 6 -12 17
-13 17 -20 -8 -7 -31 -29 -35 -72 -12 -16 8 -38 15 -49 14 -15 0 -17 -2 -5 -7
26 -12 17 -35 -12 -36 -16 -1 -28 2 -28 6 0 4 -8 8 -17 8 -16 0 -16 2 -3 11
11 7 6 8 -19 4 -20 -5 -31 -3 -28 2 8 12 -55 11 -64 0 -10 -14 -216 -6 -240 9
-5 3 -13 -6 -19 -20 -5 -14 -14 -26 -20 -26 -6 0 -8 5 -5 10 3 6 0 10 -7 10
-9 0 -9 3 2 10 17 11 10 13 -14 4 -9 -3 -13 -10 -10 -15 5 -9 -23 -14 -59 -11
-17 2 -17 1 -3 -14 26 -25 18 -29 -9 -4 -13 12 -22 27 -19 31 3 5 -2 9 -11 9
-11 0 -15 -5 -12 -14 4 -10 1 -13 -9 -9 -7 3 -14 11 -14 19 0 8 -7 14 -15 14
-13 0 -11 -5 5 -22 l21 -23 -33 -6 c-18 -4 -27 -7 -19 -8 12 -1 12 -4 -1 -18
-25 -30 -29 -41 -17 -49 8 -5 9 -3 4 6 -5 8 -3 11 6 8 12 -4 15 -19 10 -65 0
-7 -7 -13 -15 -13 -8 0 -17 -7 -20 -16 -3 -8 -2 -12 4 -9 6 3 10 -1 10 -9 0
-9 -7 -16 -16 -16 -8 0 -12 -5 -9 -10 4 -6 11 -8 16 -5 13 9 11 -19 -2 -32 -9
-9 -7 -11 8 -7 19 5 41 -21 28 -34 -3 -3 -5 0 -5 6 0 7 -7 12 -16 12 -11 0
-14 -6 -10 -17 4 -13 1 -12 -13 5 -11 12 -25 22 -33 22 -9 1 -7 5 5 14 11 8
14 17 8 20 -5 4 -13 1 -17 -5 -4 -8 -9 -7 -15 2 -13 22 -38 -10 -41 -54 -1
-21 -7 -36 -13 -33 -5 2 -8 10 -6 17 2 8 6 25 9 39 3 14 10 28 16 32 8 6 8 8
0 8 -16 0 -31 -21 -37 -50 -4 -23 -4 -23 -6 5 -2 23 -4 26 -9 12 -6 -14 -15
-4 -43 45 -20 35 -41 79 -48 98 -21 60 -51 174 -51 197 0 12 -11 43 -26 68
-14 25 -28 69 -31 98 -4 28 -26 101 -51 162 -37 90 -47 128 -54 210 -9 89 -12
170 -9 208 1 6 -3 42 -9 78 -13 79 -2 145 23 143 9 -1 17 1 17 5 0 9 39 7 68
-3z m53 -55 c-11 -7 -10 -11 5 -21 16 -10 16 -11 2 -6 -10 3 -18 1 -18 -5 0
-6 -5 -7 -10 -4 -13 8 6 45 23 45 8 0 8 -3 -2 -9z m-79 -33 c-8 -8 -9 -4 -5
13 4 13 8 18 11 10 2 -7 -1 -18 -6 -23z m1638 -44 c4 -26 5 -55 3 -65 -7 -25
-72 -43 -107 -30 -21 9 -24 8 -20 -7 4 -12 2 -12 -8 3 -14 22 -18 65 -6 65 4
0 8 -6 8 -13 0 -8 11 -19 25 -25 39 -18 55 -14 18 4 -38 19 -34 34 8 34 16 0
29 5 29 13 0 8 4 7 10 -3 8 -12 10 -8 11 15 2 30 2 30 9 -5 7 -35 7 -35 9 -5
1 45 -10 77 -25 71 -8 -3 -11 0 -7 10 10 27 35 -9 43 -62z m-1581 -6 c1 10 8
9 31 -3 16 -8 38 -15 50 -15 11 0 20 -5 20 -11 0 -8 5 -7 15 1 21 18 26 9 9
-15 -14 -19 -16 -19 -25 -2 -12 21 -42 22 -59 2 -16 -19 -25 -19 -44 1 -9 9
-16 31 -15 52 l1 37 8 -30 c4 -16 8 -24 9 -17z m-49 17 c0 -8 -4 -15 -10 -15
-5 0 -7 7 -4 15 4 8 8 15 10 15 2 0 4 -7 4 -15z m937 -27 c-3 -7 -5 -2 -5 12
0 14 2 19 5 13 2 -7 2 -19 0 -25z m-634 1 c34 -2 46 -7 43 -15 -3 -8 0 -11 8
-8 7 3 32 -4 57 -15 33 -16 38 -21 21 -21 -13 0 -33 5 -44 11 -16 9 -19 8 -13
-2 6 -9 2 -11 -13 -7 -12 3 -41 2 -64 -4 -46 -10 -118 4 -118 23 0 6 7 8 16 5
8 -3 13 -2 10 3 -3 5 0 14 8 20 10 8 16 8 25 -3 9 -11 9 -15 -1 -18 -7 -3 2
-5 20 -5 l34 0 -26 16 c-14 9 -26 19 -26 24 0 4 4 6 8 3 5 -3 30 -6 55 -7z
m-293 -40 c0 -10 -4 -19 -10 -19 -5 0 -10 12 -10 26 0 14 4 23 10 19 6 -3 10
-15 10 -26z m937 -21 c-3 -7 -5 -2 -5 12 0 14 2 19 5 13 2 -7 2 -19 0 -25z
m83 22 c-6 -4 15 -12 45 -19 31 -7 59 -10 62 -7 4 3 -3 6 -15 6 -11 0 -23 4
-26 9 -6 9 56 -1 87 -14 20 -8 22 -21 5 -27 -18 -6 -108 3 -108 11 0 3 -23 7
-51 8 -29 1 -54 5 -57 7 -12 13 9 31 38 32 17 1 27 -2 20 -6z m420 -10 c19 -6
21 -9 10 -14 -22 -9 -63 -2 -68 12 -4 13 20 14 58 2z m-922 -7 c-10 -2 -28 -2
-40 0 -13 2 -5 4 17 4 22 1 32 -1 23 -4z m132 -3 c0 -5 -4 -10 -10 -10 -5 0
-10 5 -10 10 0 6 5 10 10 10 6 0 10 -4 10 -10z m574 -5 c3 -8 1 -15 -4 -15 -6
0 -10 7 -10 15 0 8 2 15 4 15 2 0 6 -7 10 -15z m-544 -5 c0 -5 -5 -10 -11 -10
-5 0 -7 5 -4 10 3 6 8 10 11 10 2 0 4 -4 4 -10z m600 -6 c0 -2 -9 -4 -21 -4
-11 0 -18 4 -14 10 5 8 35 3 35 -6z m-1279 -16 c3 -46 6 -66 14 -79 6 -11 5
-11 -5 -2 -15 14 -31 103 -18 103 4 0 9 -10 9 -22z m1324 12 c-3 -5 -13 -10
-21 -10 -8 0 -12 5 -9 10 3 6 13 10 21 10 8 0 12 -4 9 -10z m135 -10 c0 -5 -7
-10 -16 -10 -8 0 -12 5 -9 10 3 6 10 10 16 10 5 0 9 -4 9 -10z m-1260 -94 c0
-11 -19 -15 -25 -6 -3 5 1 10 9 10 9 0 16 -2 16 -4z m100 -25 l45 -8 -45 -1
c-25 0 -56 4 -70 8 l-25 8 25 0 c14 0 45 -3 70 -7z m1135 -11 c-3 -5 -11 -10
-16 -10 -6 0 -7 5 -4 10 3 6 11 10 16 10 6 0 7 -4 4 -10z m-997 -7 c-15 -2
-42 -2 -60 0 -18 2 -6 4 27 4 33 0 48 -2 33 -4z m120 0 c-10 -2 -28 -2 -40 0
-13 2 -5 4 17 4 22 1 32 -1 23 -4z m519 -28 c0 -9 -8 -10 -31 -4 -17 5 -32 9
-33 9 -2 0 -3 4 -3 8 0 4 15 6 33 4 19 -2 34 -10 34 -17z m323 -5 c0 -6 -33
-10 -79 -10 -44 0 -83 5 -86 10 -4 6 25 10 79 10 51 0 86 -4 86 -10z m979
-249 c17 -31 16 -77 -2 -95 -21 -22 -86 -18 -100 6 -9 14 1 69 19 109 6 12 75
-4 83 -20z m-440 -214 c0 -21 -1 -21 -9 -2 -12 28 -12 37 0 30 6 -3 10 -16 9
-28z m631 -88 c-12 -8 -10 -10 10 -8 58 3 68 -1 88 -39 18 -34 18 -41 5 -65
-7 -15 -20 -27 -28 -27 -7 0 -21 -7 -29 -16 -17 -16 -93 -16 -143 1 -18 6 -23
4 -23 -9 0 -10 4 -15 9 -12 22 14 35 -79 18 -126 -12 -35 -27 -36 -27 -3 0 23
-4 25 -45 25 -33 0 -45 4 -45 15 0 8 -4 15 -10 15 -5 0 -10 8 -10 18 1 20 33
62 49 62 6 0 11 4 11 10 0 5 11 12 25 16 14 3 25 12 25 19 0 7 7 16 16 19 9 3
14 13 10 21 -3 8 3 22 12 31 9 10 17 21 17 25 0 17 17 22 25 9 7 -12 12 -12
22 -2 9 9 9 12 -2 12 -13 0 -13 2 0 10 20 13 39 12 20 -1z m-432 -70 c30 -15
49 -33 60 -58 9 -20 20 -38 23 -41 18 -14 19 -70 3 -111 -21 -53 -35 -65 -94
-79 -76 -18 -125 11 -169 102 -26 54 -26 55 -1 112 40 95 91 117 178 75z
m-1278 -35 c98 -2 125 -5 136 -17 7 -7 -20 -12 -40 -8 -5 1 -12 -3 -16 -10 -9
-14 -170 -13 -184 1 -6 6 -20 10 -32 10 -27 0 -40 27 -16 33 9 2 26 2 37 -1
11 -3 63 -6 115 -8z m250 12 c0 -3 -4 -8 -10 -11 -5 -3 -10 -1 -10 4 0 6 5 11
10 11 6 0 10 -2 10 -4z m-161 -80 c-12 -10 -79 -16 -79 -6 0 5 19 10 42 10 23
0 39 -2 37 -4z m2431 -86 c0 -5 -5 -10 -11 -10 -5 0 -7 5 -4 10 3 6 8 10 11
10 2 0 4 -4 4 -10z m30 -19 c0 -5 -7 -12 -16 -15 -24 -9 -28 -7 -14 9 14 17
30 20 30 6z m-3895 -101 c-3 -4 7 -11 22 -15 16 -3 31 -11 34 -17 4 -7 13 -6
28 1 12 7 21 8 20 4 -3 -19 2 -33 12 -33 6 0 9 9 6 20 -3 11 -1 20 4 20 5 0 9
-4 9 -9 0 -5 10 -7 23 -4 19 4 20 3 6 -9 -13 -11 -4 -13 60 -14 42 0 65 2 52
6 -29 7 -40 30 -14 30 15 0 16 -2 3 -10 -11 -7 -7 -10 19 -10 30 0 32 -2 20
-16 -10 -12 -25 -15 -61 -12 -26 3 -45 1 -42 -3 2 -4 -17 -11 -43 -15 -27 -4
-95 -27 -152 -50 -57 -24 -106 -44 -109 -44 -2 0 -2 7 2 15 3 8 1 15 -4 15
-17 0 -30 38 -24 69 4 17 10 28 15 25 5 -3 9 3 9 13 1 11 17 26 43 39 39 20
73 22 62 4z m816 -23 c-10 -9 -11 -8 -5 6 3 10 9 15 12 12 3 -3 0 -11 -7 -18z
m-584 -13 c-3 -3 -12 -4 -19 -1 -8 3 -5 6 6 6 11 1 17 -2 13 -5z m128 -4 c4
-7 13 -6 26 1 12 6 23 8 26 5 6 -5 -40 -26 -56 -26 -5 0 -14 7 -21 15 -10 12
-10 15 3 15 9 0 19 -5 22 -10z m570 -50 c3 -5 13 -6 23 -3 9 3 14 3 10 -1 -3
-4 -20 -10 -37 -12 -24 -4 -31 -1 -31 10 0 17 25 22 35 6z m-125 -42 c0 -5 -4
-8 -10 -8 -5 0 -10 4 -10 10 0 5 -6 8 -12 6 -7 -1 -10 -1 -5 1 4 3 4 9 1 15
-3 5 3 4 15 -4 12 -7 21 -16 21 -20z m-9 -22 c5 3 9 1 9 -4 0 -5 -11 -9 -25
-9 -14 0 -25 3 -25 7 0 12 24 19 28 8 2 -4 8 -6 13 -2z m-23 -173 c-18 -22
-28 -14 -16 12 8 18 14 22 19 13 4 -7 3 -18 -3 -25z m998 1 c-5 -13 -2 -15 14
-11 11 3 18 1 14 -4 -3 -5 0 -9 5 -9 6 0 11 -5 11 -11 0 -8 -4 -8 -14 0 -10 8
-16 9 -21 1 -10 -16 -32 -12 -32 8 -2 26 5 42 18 42 6 0 8 -7 5 -16z m121 1
c0 -8 -4 -15 -8 -15 -4 0 -9 7 -13 15 -3 9 0 15 8 15 7 0 13 -7 13 -15z m-947
-15 c0 -5 -2 -10 -4 -10 -3 0 -8 5 -11 10 -3 6 -1 10 4 10 6 0 11 -4 11 -10z
m914 1 c3 -5 -1 -11 -9 -14 -9 -4 -12 -1 -8 9 6 16 10 17 17 5z m-2241 -45
c24 9 28 -10 9 -43 -37 -66 -149 -223 -155 -216 -4 3 -7 -6 -7 -22 0 -35 -12
-26 -16 12 -1 15 -6 53 -10 83 -12 89 -12 94 0 121 6 15 17 24 25 21 9 -3 11
0 6 8 -6 10 -4 12 9 7 13 -5 17 -3 13 7 -4 9 -1 13 6 11 7 -2 28 2 47 9 19 7
40 9 46 4 6 -5 18 -6 27 -2z m1420 -49 c18 -15 19 -18 4 -13 -10 3 -23 6 -28
6 -5 0 -9 9 -9 19 0 11 -5 21 -12 23 -7 3 -8 9 -3 18 6 10 10 8 17 -11 5 -13
19 -32 31 -42z m227 33 c0 -13 -7 -20 -20 -20 -25 0 -25 9 -2 26 22 17 22 17
22 -6z m500 11 c0 -5 -9 -11 -21 -14 -16 -4 -18 -3 -8 9 13 16 29 19 29 5z
m-531 -73 c-6 -10 -19 -18 -29 -18 -25 0 -25 -9 -2 -26 9 -7 12 -14 5 -14 -6
0 -18 6 -26 14 -15 16 -44 5 -33 -13 4 -6 0 -11 -9 -11 -12 0 -15 5 -11 16 4
12 2 15 -9 11 -8 -4 -17 -2 -20 3 -3 4 6 7 21 5 17 -2 24 2 20 11 -3 8 0 11
10 7 8 -3 20 0 28 6 7 6 21 9 30 5 10 -4 16 -1 16 9 0 10 -8 13 -26 9 -19 -3
-25 -1 -20 7 4 6 12 9 17 6 5 -4 6 2 2 11 -6 16 -4 15 19 -2 20 -15 24 -23 17
-36z m-115 -17 c-2 -2 -11 4 -19 15 -13 16 -16 17 -25 4 -8 -13 -10 -13 -10 3
0 9 5 17 11 17 5 0 7 6 4 13 -4 6 5 -1 19 -18 14 -16 23 -31 20 -34z m148 13
c-8 -14 -9 -13 -9 10 0 18 3 24 9 18 7 -7 7 -16 0 -28z m408 26 c0 -5 -2 -10
-4 -10 -3 0 -8 5 -11 10 -3 6 -1 10 4 10 6 0 11 -4 11 -10z m-510 -19 c0 -5
-9 -7 -20 -4 -11 3 -20 7 -20 9 0 2 9 4 20 4 11 0 20 -4 20 -9z m220 -23 c0
-6 -6 -5 -15 2 -8 7 -15 14 -15 16 0 2 7 1 15 -2 8 -4 15 -11 15 -16z m130 13
c0 -5 -7 -11 -14 -14 -10 -4 -13 -1 -9 9 6 15 23 19 23 5z m-161 -24 c0 -9 -2
-9 -6 0 -3 10 -10 10 -26 2 -21 -10 -21 -9 -3 5 20 16 37 13 35 -7z m-329 -7
c0 -5 -5 -10 -11 -10 -5 0 -7 5 -4 10 3 6 8 10 11 10 2 0 4 -4 4 -10z m-347
-31 c-3 -11 0 -19 6 -19 7 0 9 -4 6 -10 -3 -5 -2 -10 4 -10 5 0 8 -8 7 -17 -2
-11 -13 -18 -30 -20 -14 -1 -24 2 -21 7 3 5 -2 13 -11 18 -11 6 -13 12 -6 16
6 4 9 13 5 21 -7 19 14 45 32 39 7 -3 11 -14 8 -25z m632 13 c-3 -3 -11 0 -18
7 -9 10 -8 11 6 5 10 -3 15 -9 12 -12z m-60 -42 c5 -17 4 -22 -3 -15 -5 6 -13
21 -17 35 -5 17 -4 22 3 15 5 -5 13 -21 17 -35z m-30 10 c3 -5 1 -10 -4 -10
-6 0 -11 5 -11 10 0 6 2 10 4 10 3 0 8 -4 11 -10z m-155 -10 c0 -5 -4 -10 -10
-10 -5 0 -10 5 -10 10 0 6 5 10 10 10 6 0 10 -4 10 -10z m130 0 c0 -5 -2 -10
-4 -10 -3 0 -8 5 -11 10 -3 6 -1 10 4 10 6 0 11 -4 11 -10z m-35 -20 c3 -5 1
-10 -4 -10 -6 0 -11 5 -11 10 0 6 2 10 4 10 3 0 8 -4 11 -10z m-35 -10 c0 -5
-4 -10 -10 -10 -5 0 -10 5 -10 10 0 6 5 10 10 10 6 0 10 -4 10 -10z m80 0 c0
-5 -4 -10 -10 -10 -5 0 -10 5 -10 10 0 6 5 10 10 10 6 0 10 -4 10 -10z m30
-20 c-18 -11 -24 -6 -16 16 5 14 9 15 19 5 9 -9 9 -14 -3 -21z m274 -16 c4 -9
13 -14 21 -10 8 3 15 2 15 -3 0 -5 -13 -11 -29 -13 -17 -2 -28 -1 -25 4 3 4
-3 9 -13 9 -17 1 -17 2 0 6 9 2 15 9 12 14 -4 5 -2 9 3 9 6 0 13 -7 16 -16z
m-819 -5 c4 -6 14 -8 22 -5 12 5 14 1 10 -15 -4 -15 2 -29 21 -46 l27 -25 -30
19 c-16 11 -35 23 -42 27 -6 3 -23 -5 -37 -19 -29 -29 -32 -30 -39 -11 -4 10
8 21 34 34 36 18 38 21 24 36 -9 9 -12 16 -6 16 5 0 13 -5 16 -11z m59 -110
c-3 -5 -10 -7 -15 -4 -5 4 -15 3 -21 -2 -7 -4 -19 -8 -26 -9 -22 -4 -26 -12
-13 -28 9 -10 8 -15 -3 -19 -8 -3 -13 1 -12 11 1 12 -6 16 -23 14 -15 -2 -21
0 -16 7 3 6 11 9 16 6 5 -4 9 -2 9 4 0 5 -8 15 -17 20 -10 6 -13 11 -6 11 6 0
15 -4 18 -10 3 -5 14 -10 23 -10 16 1 15 2 -1 11 -15 9 -15 12 -3 25 8 8 20
14 26 14 6 0 8 5 4 12 -4 6 9 -1 29 -16 20 -16 34 -32 31 -37z m66 -99 c0 -5
-4 -10 -10 -10 -5 0 -10 5 -10 10 0 6 5 10 10 10 6 0 10 -4 10 -10z m1501 -25
c1 -17 -18 -17 -25 0 -4 11 -1 15 10 13 8 -2 15 -7 15 -13z m63 -33 c3 -5 -1
-9 -9 -9 -8 0 -12 4 -9 9 3 4 7 8 9 8 2 0 6 -4 9 -8z m-478 -89 c-6 -6 -36 9
-36 18 0 5 9 4 20 -3 10 -7 18 -14 16 -15z m332 -3 c-9 -13 -16 -16 -23 -9 -7
7 -5 13 5 19 24 15 31 11 18 -10z m-1102 -16 c-3 -8 -9 -21 -12 -29 -3 -8 -1
-15 5 -15 20 0 12 -17 -14 -28 -47 -21 -54 -16 -42 26 14 48 21 57 47 59 15 1
20 -2 16 -13z m688 5 c-3 -6 0 -15 7 -20 11 -7 10 -9 -3 -9 -10 0 -18 5 -18
10 0 6 -8 10 -17 11 -12 1 -10 4 7 9 14 4 26 8 28 9 2 1 0 -4 -4 -10z m-125
-35 c2 -2 2 -7 -2 -10 -3 -3 -16 2 -29 11 l-23 17 25 -7 c14 -4 27 -9 29 -11z
m101 2 c0 -3 -4 -8 -10 -11 -5 -3 -10 -1 -10 4 0 6 5 11 10 11 6 0 10 -2 10
-4z m-135 -26 c-3 -5 -11 -10 -16 -10 -6 0 -7 5 -4 10 3 6 11 10 16 10 6 0 7
-4 4 -10z m179 -5 c11 -8 15 -15 10 -15 -6 0 -19 7 -30 15 -10 8 -14 14 -9 14
6 0 19 -6 29 -14z m-175 -10 c19 4 34 1 44 -9 9 -9 18 -16 22 -16 4 0 13 -7
21 -15 14 -13 14 -15 0 -15 -9 0 -16 6 -17 13 0 10 -2 10 -6 0 -2 -7 -10 -13
-15 -13 -6 0 -8 3 -5 6 10 10 -12 44 -28 44 -21 0 -19 -20 3 -21 10 0 12 -3 5
-6 -7 -2 -27 3 -45 11 -21 11 -35 13 -42 6 -7 -7 -5 -10 7 -10 9 0 17 -4 17
-10 0 -15 -19 -12 -36 5 -9 8 -11 15 -5 15 6 0 11 7 11 15 0 13 4 14 21 5 11
-6 33 -9 48 -5z m411 5 c0 -5 -4 -10 -10 -10 -5 0 -10 5 -10 10 0 6 5 10 10
10 6 0 10 -4 10 -10z m-293 -12 c-16 -10 -44 -10 -51 0 -2 4 11 8 30 8 20 0
29 -3 21 -8z m563 -18 c0 -5 -2 -10 -4 -10 -3 0 -8 5 -11 10 -3 6 -1 10 4 10
6 0 11 -4 11 -10z m-1066 -16 c20 -19 20 -34 0 -62 -29 -41 -84 -23 -84 28 0
14 5 31 12 38 17 17 54 15 72 -4z m526 12 c0 -2 -7 -6 -15 -10 -8 -3 -15 -1
-15 4 0 6 7 10 15 10 8 0 15 -2 15 -4z m-740 -32 c0 -14 -4 -23 -9 -20 -13 8
-42 -4 -35 -15 3 -5 -2 -9 -10 -9 -9 0 -16 -4 -16 -10 0 -5 -4 -10 -10 -10 -5
0 -10 7 -10 15 0 8 6 15 14 15 7 0 26 13 42 29 36 36 34 36 34 5z m767 10 c-3
-3 -12 -4 -19 -1 -8 3 -5 6 6 6 11 1 17 -2 13 -5z m-37 -14 c0 -5 -2 -10 -4
-10 -3 0 -8 5 -11 10 -3 6 -1 10 4 10 6 0 11 -4 11 -10z m-270 -10 c0 -5 -7
-10 -16 -10 -8 0 -12 5 -9 10 3 6 10 10 16 10 5 0 9 -4 9 -10z m250 -6 c16
-10 18 -13 5 -8 -11 4 -30 8 -42 8 -13 1 -23 4 -23 9 0 12 33 7 60 -9z m-70
-26 c0 -6 -6 -5 -15 2 -8 7 -15 14 -15 16 0 2 7 1 15 -2 8 -4 15 -11 15 -16z
m46 -3 c-8 -8 -18 -15 -22 -15 -3 0 -1 7 6 15 7 8 17 15 22 15 5 0 3 -7 -6
-15z m-626 -5 c0 -5 -5 -10 -11 -10 -5 0 -7 5 -4 10 3 6 8 10 11 10 2 0 4 -4
4 -10z m560 -10 c0 -5 -4 -10 -10 -10 -5 0 -10 -4 -10 -10 0 -15 16 -12 34 6
9 8 16 11 16 5 0 -16 -35 -31 -58 -24 -27 7 -27 12 -4 29 21 16 32 17 32 4z
m80 -10 c-13 -11 -26 -18 -28 -15 -6 6 28 34 42 35 5 0 -1 -9 -14 -20z m-800
0 c0 -5 -4 -10 -10 -10 -5 0 -10 5 -10 10 0 6 5 10 10 10 6 0 10 -4 10 -10z
m104 -5 c3 -8 1 -15 -4 -15 -6 0 -10 7 -10 15 0 8 2 15 4 15 2 0 6 -7 10 -15z
m826 0 c0 -2 -10 -9 -22 -15 -22 -11 -22 -10 -4 4 21 17 26 19 26 11z m-670
-9 c0 -3 -4 -8 -10 -11 -5 -3 -10 -1 -10 4 0 6 5 11 10 11 6 0 10 -2 10 -4z
m495 -16 c-3 -5 -12 -10 -18 -10 -7 0 -6 4 3 10 19 12 23 12 15 0z m-475 -10
c0 -5 -2 -10 -4 -10 -3 0 -8 5 -11 10 -3 6 -1 10 4 10 6 0 11 -4 11 -10z m526
1 c9 7 18 7 31 0 16 -9 14 -11 -12 -11 -26 -1 -28 -3 -10 -11 l20 -9 -20 2
c-27 2 -65 -11 -65 -23 0 -11 -50 -32 -58 -24 -3 2 6 9 19 14 l24 10 -25 1
-25 1 28 15 c15 8 31 12 36 9 5 -3 16 -2 25 1 14 5 14 9 4 23 -10 13 -10 14 2
4 10 -9 17 -9 26 -2z m-746 -41 c0 -11 -2 -20 -4 -20 -2 0 -6 9 -9 20 -3 11
-1 20 4 20 5 0 9 -9 9 -20z m65 10 c3 -5 1 -10 -4 -10 -6 0 -11 5 -11 10 0 6
2 10 4 10 3 0 8 -4 11 -10z m360 -30 c-3 -5 -10 -10 -16 -10 -5 0 -9 5 -9 10
0 6 7 10 16 10 8 0 12 -4 9 -10z m45 5 c0 -2 -10 -10 -22 -16 -21 -11 -22 -11
-9 4 13 16 31 23 31 12z m44 -10 c-10 -8 -26 -14 -34 -15 -8 0 -4 6 10 14 34
19 48 20 24 1z m-191 -25 c6 0 2 -7 -9 -15 -10 -8 -23 -14 -29 -15 -5 0 -3 5
5 10 13 9 13 11 0 21 -13 9 -12 10 3 5 10 -3 24 -6 30 -6z m-234 -61 c-5 -11
-12 -19 -15 -19 -3 0 -1 8 5 17 7 13 5 23 -7 38 -17 20 -17 20 5 1 18 -14 20
-23 12 -37z m111 10 c0 -6 -4 -7 -10 -4 -5 3 -10 11 -10 16 0 6 5 7 10 4 6 -3
10 -11 10 -16z m119 -28 c9 -6 10 -11 2 -15 -13 -8 -31 1 -31 15 0 11 11 11
29 0z"/>
<path d="M2396 3941 c-4 -5 3 -7 14 -4 23 6 26 13 6 13 -8 0 -17 -4 -20 -9z"/>
<path d="M4115 3910 c-3 -5 -1 -10 4 -10 6 0 11 5 11 10 0 6 -2 10 -4 10 -3 0
-8 -4 -11 -10z"/>
<path d="M4120 3870 c0 -5 5 -10 10 -10 6 0 10 5 10 10 0 6 -4 10 -10 10 -5 0
-10 -4 -10 -10z"/>
<path d="M2271 3874 c0 -11 3 -14 6 -6 3 7 2 16 -1 19 -3 4 -6 -2 -5 -13z"/>
<path d="M4154 3549 c0 -10 4 -15 9 -12 4 3 5 -11 2 -31 -4 -20 -3 -36 1 -36
5 0 7 -25 6 -55 -4 -65 12 -74 23 -12 8 44 9 68 4 129 -3 31 -7 37 -24 36 -12
-1 -21 -9 -21 -19z"/>
<path d="M2300 3464 c0 -8 5 -12 10 -9 6 4 8 11 5 16 -9 14 -15 11 -15 -7z"/>
<path d="M2312 3420 c0 -14 2 -19 5 -12 2 6 2 18 0 25 -3 6 -5 1 -5 -13z"/>
<path d="M4090 3343 c0 -16 -3 -39 -6 -53 -5 -24 -5 -24 10 -6 18 22 22 86 6
86 -5 0 -10 -12 -10 -27z"/>
<path d="M4161 3324 c0 -11 3 -14 6 -6 3 7 2 16 -1 19 -3 4 -6 -2 -5 -13z"/>
<path d="M4125 3249 c-4 -6 -5 -12 -2 -15 2 -3 7 2 10 11 7 17 1 20 -8 4z"/>
<path d="M3254 3218 c-16 -12 -31 -23 -33 -25 -2 -2 -2 -6 2 -9 3 -4 13 1 22
9 11 12 28 15 63 11 49 -5 79 6 68 25 -13 20 -91 13 -122 -11z"/>
<path d="M2993 3219 c-32 -9 -46 -29 -20 -29 8 0 7 -4 -3 -10 -11 -7 -2 -8 28
-4 37 6 42 4 42 -13 0 -12 7 -19 20 -20 14 -1 20 5 20 20 l1 22 17 -21 c14
-16 23 -19 41 -13 12 5 34 6 47 3 15 -4 24 -2 24 5 0 6 -7 11 -15 11 -8 0 -15
5 -15 10 0 6 -15 10 -32 10 -18 0 -46 9 -63 20 -33 22 -44 23 -92 9z"/>
<path d="M3230 3150 c0 -5 5 -10 11 -10 5 0 7 5 4 10 -3 6 -8 10 -11 10 -2 0
-4 -4 -4 -10z"/>
<path d="M3071 3104 c0 -11 3 -14 6 -6 3 7 2 16 -1 19 -3 4 -6 -2 -5 -13z"/>
<path d="M3115 3111 c-3 -5 -2 -12 3 -15 5 -3 9 1 9 9 0 17 -3 19 -12 6z"/>
<path d="M3150 3088 c0 -20 -5 -40 -10 -43 -6 -4 -7 -11 -4 -17 5 -7 11 -5 19
6 7 9 18 15 25 14 7 -2 15 3 17 10 3 8 -1 10 -13 5 -13 -5 -16 -3 -11 9 3 9
-1 24 -8 35 -13 16 -14 15 -15 -19z"/>
<path d="M2990 3069 c0 -5 5 -7 10 -4 6 3 10 8 10 11 0 2 -4 4 -10 4 -5 0 -10
-5 -10 -11z"/>
<path d="M3210 3050 c0 -5 5 -10 11 -10 5 0 7 5 4 10 -3 6 -8 10 -11 10 -2 0
-4 -4 -4 -10z"/>
<path d="M2825 2950 c3 -5 8 -10 11 -10 2 0 4 5 4 10 0 6 -5 10 -11 10 -5 0
-7 -4 -4 -10z"/>
<path d="M2860 2920 c0 -5 5 -10 10 -10 6 0 10 5 10 10 0 6 -4 10 -10 10 -5 0
-10 -4 -10 -10z"/>
<path d="M2710 2916 c0 -2 7 -6 15 -10 8 -3 15 -1 15 4 0 6 -7 10 -15 10 -8 0
-15 -2 -15 -4z"/>
<path d="M2640 2879 c0 -5 5 -7 10 -4 6 3 10 8 10 11 0 2 -4 4 -10 4 -5 0 -10
-5 -10 -11z"/>
<path d="M2750 2880 c0 -5 5 -10 11 -10 5 0 7 5 4 10 -3 6 -8 10 -11 10 -2 0
-4 -4 -4 -10z"/>
<path d="M2562 2840 c0 -14 2 -19 5 -12 2 6 2 18 0 25 -3 6 -5 1 -5 -13z"/>
<path d="M2580 2851 c0 -5 5 -13 10 -16 6 -3 10 -2 10 4 0 5 -4 13 -10 16 -5
3 -10 2 -10 -4z"/>
<path d="M2680 2840 c0 -5 5 -10 10 -10 6 0 10 5 10 10 0 6 -4 10 -10 10 -5 0
-10 -4 -10 -10z"/>
<path d="M2717 2843 c-4 -3 -7 -11 -7 -17 0 -6 5 -5 12 2 6 6 9 14 7 17 -3 3
-9 2 -12 -2z"/>
<path d="M2610 2795 c-7 -9 -11 -17 -9 -20 3 -2 10 5 17 15 14 24 10 26 -8 5z"/>
<path d="M2600 2731 c0 -6 4 -13 10 -16 6 -3 7 1 4 9 -7 18 -14 21 -14 7z"/>
<path d="M3818 2713 c7 -3 16 -2 19 1 4 3 -2 6 -13 5 -11 0 -14 -3 -6 -6z"/>
<path d="M2604 2678 c3 -17 36 -23 36 -8 0 7 -6 10 -14 7 -8 -3 -17 -2 -20 4
-2 5 -3 4 -2 -3z"/>
<path d="M2580 2660 c0 -5 5 -10 11 -10 5 0 7 5 4 10 -3 6 -8 10 -11 10 -2 0
-4 -4 -4 -10z"/>
<path d="M3055 2660 c-3 -5 1 -10 9 -10 9 0 16 -4 16 -8 0 -4 9 -8 20 -9 11
-1 20 2 20 8 0 5 10 9 23 10 21 1 21 1 -3 8 -14 4 -28 3 -31 -2 -4 -5 -15 -5
-27 2 -14 7 -23 8 -27 1z"/>
<path d="M3833 2663 c4 -3 -1 -12 -11 -20 -16 -12 -16 -13 2 -6 13 4 17 2 14
-8 -3 -8 -1 -22 4 -32 7 -14 5 -22 -9 -34 -16 -13 -16 -14 0 -9 11 3 17 0 17
-9 0 -8 5 -15 10 -15 7 0 7 6 0 20 -7 14 -7 20 0 20 5 0 10 11 10 25 0 14 -4
25 -10 25 -5 0 -10 5 -10 10 0 7 6 7 20 0 12 -7 20 -7 20 -1 0 5 -9 13 -20 16
-11 3 -20 11 -20 16 0 5 -5 9 -12 9 -6 0 -8 -3 -5 -7z"/>
<path d="M3188 2646 c-20 -14 -14 -28 8 -19 8 3 14 1 14 -4 0 -5 9 -9 20 -10
15 -1 20 4 20 23 0 18 -5 24 -22 24 -13 0 -31 -7 -40 -14z"/>
<path d="M3288 2653 c7 -3 16 -2 19 1 4 3 -2 6 -13 5 -11 0 -14 -3 -6 -6z"/>
<path d="M3324 2641 c3 -4 -6 -6 -20 -3 -16 3 -30 -1 -35 -9 -13 -21 -11 -35
3 -21 18 18 55 15 63 -5 7 -17 8 -16 15 2 12 28 12 43 0 25 -8 -13 -10 -12
-10 3 0 9 -5 17 -11 17 -5 0 -8 -4 -5 -9z"/>
<path d="M3590 2635 c-10 -12 -10 -15 3 -15 8 0 20 7 27 15 10 12 10 15 -3 15
-8 0 -20 -7 -27 -15z"/>
<path d="M3660 2625 c0 -8 5 -15 10 -15 6 0 10 7 10 15 0 8 -4 15 -10 15 -5 0
-10 -7 -10 -15z"/>
<path d="M3616 2615 c-3 -8 -3 -21 0 -29 6 -16 34 -30 42 -21 3 3 0 5 -7 5 -7
0 -11 7 -8 14 4 10 1 13 -9 9 -7 -3 -14 0 -14 6 0 6 5 11 10 11 6 0 10 5 10
10 0 15 -17 12 -24 -5z"/>
<path d="M2843 2601 c-10 -16 -8 -22 14 -36 21 -14 27 -15 34 -4 13 21 11 32
-6 25 -10 -3 -18 2 -23 14 -7 19 -8 19 -19 1z"/>
<path d="M3075 2610 c3 -5 8 -10 11 -10 2 0 4 5 4 10 0 6 -5 10 -11 10 -5 0
-7 -4 -4 -10z"/>
<path d="M3671 2570 c13 -35 29 -30 29 8 0 21 -2 24 -10 12 -6 -10 -10 -11
-10 -2 0 6 -4 12 -9 12 -6 0 -6 -12 0 -30z"/>
<path d="M3770 2596 c0 -2 7 -6 15 -10 8 -3 15 -1 15 4 0 6 -7 10 -15 10 -8 0
-15 -2 -15 -4z"/>
<path d="M3266 2573 c-10 -10 -7 -21 8 -26 11 -4 13 -1 9 10 -4 10 -2 14 5 9
6 -3 13 -3 16 2 5 9 -29 14 -38 5z"/>
<path d="M3572 2557 c19 -19 46 -28 53 -17 4 6 -3 10 -15 10 -12 0 -18 5 -15
10 3 6 -3 10 -15 10 -18 0 -19 -2 -8 -13z"/>
<path d="M3770 2563 c0 -17 19 -37 27 -29 4 5 2 11 -5 13 -6 3 -10 9 -6 14 3
5 0 9 -5 9 -6 0 -11 -3 -11 -7z"/>
<path d="M3715 2540 c3 -5 8 -10 11 -10 2 0 4 5 4 10 0 6 -5 10 -11 10 -5 0
-7 -4 -4 -10z"/>
<path d="M3567 2510 c3 -11 9 -20 14 -20 11 0 11 3 3 24 -9 23 -23 20 -17 -4z"/>
<path d="M3664 2505 c-17 -13 -17 -14 -1 -15 9 0 17 -5 17 -11 0 -6 -7 -9 -15
-5 -13 5 -13 2 1 -19 18 -28 26 -32 18 -10 -5 11 -1 14 12 9 14 -4 15 -3 6 4
-8 5 -15 21 -15 36 -1 14 -2 26 -3 26 0 0 -9 -7 -20 -15z"/>
<path d="M3800 2510 c0 -5 5 -10 10 -10 6 0 10 5 10 10 0 6 -4 10 -10 10 -5 0
-10 -4 -10 -10z"/>
<path d="M2870 2497 c0 -8 6 -14 14 -14 8 0 12 6 9 14 -3 7 -9 13 -14 13 -5 0
-9 -6 -9 -13z"/>
<path d="M2910 2506 c0 -1 9 -13 20 -26 16 -18 20 -20 20 -7 0 10 1 20 3 24 1
3 -8 8 -20 9 -13 2 -23 2 -23 0z"/>
<path d="M3608 2503 c7 -3 16 -2 19 1 4 3 -2 6 -13 5 -11 0 -14 -3 -6 -6z"/>
<path d="M3760 2500 c0 -5 7 -7 15 -4 8 4 15 8 15 10 0 2 -7 4 -15 4 -8 0 -15
-4 -15 -10z"/>
<path d="M3997 2490 c3 -11 10 -20 15 -20 6 0 8 -7 5 -14 -4 -10 -1 -13 7 -10
8 3 16 -4 19 -15 3 -12 1 -21 -4 -21 -5 0 -9 -4 -9 -10 0 -5 7 -10 15 -10 8 0
15 -9 15 -20 0 -11 5 -19 11 -17 6 1 14 -4 16 -11 3 -8 -1 -10 -11 -6 -13 5
-16 -1 -16 -30 0 -35 -26 -104 -45 -118 -6 -5 -4 -12 5 -18 13 -9 7 -14 -12
-11 -5 0 -8 -3 -8 -9 0 -5 -6 -10 -13 -10 -14 0 -107 -88 -107 -102 0 -4 -7
-8 -15 -8 -8 0 -15 -9 -15 -21 0 -11 -4 -18 -9 -15 -5 3 -11 -1 -15 -9 -3 -8
-11 -12 -18 -10 -8 3 -21 -9 -32 -30 -10 -19 -22 -32 -27 -30 -16 11 -58 -15
-61 -37 -2 -14 -10 -23 -23 -24 -30 -1 -65 -15 -65 -25 0 -5 -5 -9 -10 -9 -6
0 -22 -8 -37 -17 -32 -21 -63 -24 -63 -6 0 7 -4 13 -10 13 -5 0 -10 -4 -10
-10 0 -5 -9 -10 -21 -10 -15 0 -19 -4 -15 -16 5 -14 4 -15 -8 -5 -11 10 -17 8
-25 -6 -9 -16 -10 -16 -11 -2 0 9 7 19 15 23 15 5 21 26 8 26 -10 0 -53 -63
-53 -76 0 -5 5 -2 10 6 8 13 10 13 10 -2 0 -23 -16 -32 -24 -12 -3 8 -11 12
-16 9 -8 -5 -7 -11 1 -21 15 -19 2 -18 -17 1 -9 8 -12 19 -9 25 3 6 -4 10 -17
10 -14 0 -18 -3 -11 -8 17 -11 21 -48 4 -44 -9 2 -11 -3 -7 -13 4 -11 2 -15
-6 -12 -7 2 -11 12 -10 23 2 10 -3 23 -11 28 -8 6 -15 14 -16 18 -1 4 -6 18
-11 30 -8 22 -11 18 -13 -19 -1 -10 -7 -22 -14 -26 -7 -4 -13 -19 -13 -32 0
-14 -5 -24 -11 -22 -6 1 -14 -4 -16 -10 -3 -7 2 -13 11 -13 10 0 16 -9 16 -22
0 -15 -3 -19 -8 -11 -4 7 -16 10 -27 9 -34 -6 -37 5 -11 39 30 39 31 45 11 45
-8 0 -15 -9 -15 -20 0 -11 -4 -20 -8 -20 -5 0 -7 17 -5 38 3 38 2 38 -27 34
-35 -5 -40 -19 -8 -24 17 -2 22 -10 24 -40 1 -21 -2 -38 -7 -38 -5 0 -9 -9 -9
-20 0 -11 -5 -20 -11 -20 -5 0 -8 4 -5 9 3 5 -1 12 -10 15 -17 7 -11 21 8 21
17 0 19 53 3 59 -17 6 -30 -10 -15 -19 18 -11 11 -23 -10 -18 -25 7 -25 -1 0
-52 21 -44 25 -65 11 -65 -5 0 -11 -9 -14 -20 -6 -24 1 -26 17 -4 6 8 18 16
26 18 33 6 70 30 70 45 0 13 2 13 9 2 6 -9 11 -10 15 -2 4 6 12 9 17 5 6 -3
18 4 28 15 10 12 25 21 32 21 11 0 11 -2 -1 -10 -11 -7 -11 -10 -2 -10 7 0 16
10 21 22 7 19 8 20 14 3 7 -15 9 -15 28 9 11 14 24 24 29 21 5 -3 11 -1 15 4
3 6 13 7 22 4 11 -4 14 -3 9 5 -6 10 17 18 27 10 1 -2 13 7 27 20 13 12 31 22
40 22 9 0 20 4 25 9 20 17 72 30 83 19 7 -7 10 -4 9 8 -2 12 11 22 44 34 26
10 57 27 70 39 27 25 57 27 65 6 7 -17 30 -20 39 -5 3 6 -1 7 -10 4 -13 -5
-13 -2 2 25 10 17 24 31 31 31 6 0 12 6 12 14 0 8 4 17 9 21 6 3 8 -3 6 -14
-4 -24 27 -34 52 -15 16 12 15 13 -9 8 -16 -2 -28 0 -28 6 0 5 8 10 18 11 10
0 12 3 5 6 -26 10 -12 22 13 13 25 -10 26 -9 20 15 -4 14 -2 25 4 25 5 0 10 5
10 11 0 6 -7 9 -15 5 -13 -5 -14 -2 -4 16 6 11 14 17 18 12 9 -13 63 -16 55
-3 -3 6 -12 8 -20 5 -8 -3 -14 1 -14 9 0 8 7 15 16 15 8 0 12 5 9 10 -4 6 -12
7 -18 3 -7 -4 -6 1 2 11 11 13 16 14 24 4 6 -9 7 -8 3 5 -4 11 3 31 16 50 35
48 48 77 49 106 0 23 1 24 9 6 7 -18 9 -16 15 13 4 18 10 30 13 27 11 -11 48
103 44 137 -4 40 -18 49 -102 68 -68 15 -79 13 -73 -10z m115 -158 c-7 -2 -10
-8 -7 -12 3 -5 1 -11 -5 -15 -11 -7 -13 5 -4 29 3 9 11 13 17 9 8 -5 7 -8 -1
-11z m-882 -633 c-14 -4 -19 -7 -12 -8 6 -1 12 -8 12 -16 0 -25 -25 -17 -26 9
-1 16 4 26 15 29 27 6 38 -7 11 -14z"/>
<path d="M3770 2470 c0 -5 7 -10 15 -10 8 0 15 5 15 10 0 6 -7 10 -15 10 -8 0
-15 -4 -15 -10z"/>
<path d="M3737 2450 c-14 -17 -14 -20 -2 -20 8 0 15 4 15 9 0 5 10 7 23 4 23
-6 23 -5 -4 14 -12 10 -19 8 -32 -7z"/>
<path d="M3626 2443 c-6 -14 -5 -15 5 -6 7 7 10 15 7 18 -3 3 -9 -2 -12 -12z"/>
<path d="M3000 2440 c0 -5 5 -10 11 -10 5 0 7 5 4 10 -3 6 -8 10 -11 10 -2 0
-4 -4 -4 -10z"/>
<path d="M2970 2425 c7 -9 15 -13 17 -11 7 7 -7 26 -19 26 -6 0 -6 -6 2 -15z"/>
<path d="M3470 2429 c0 -5 5 -7 10 -4 6 3 10 8 10 11 0 2 -4 4 -10 4 -5 0 -10
-5 -10 -11z"/>
<path d="M2923 2406 c-13 -6 -23 -18 -23 -26 0 -13 1 -13 10 0 9 13 11 13 21
0 9 -13 10 -13 6 2 -3 9 1 19 9 22 8 3 13 2 10 -2 -2 -4 0 -14 5 -22 8 -12 9
-9 7 9 -3 28 -14 33 -45 17z"/>
<path d="M3530 2409 c0 -5 5 -7 10 -4 6 3 10 8 10 11 0 2 -4 4 -10 4 -5 0 -10
-5 -10 -11z"/>
<path d="M3640 2416 c0 -4 6 -14 14 -21 12 -12 16 -12 28 2 10 13 10 15 0 9
-7 -4 -19 -2 -27 4 -8 7 -15 9 -15 6z"/>
<path d="M3718 2406 c-23 -17 -22 -22 1 -47 l19 -20 15 20 c9 15 20 19 33 15
15 -5 16 -4 5 4 -12 9 -12 13 -2 26 8 9 9 16 3 16 -5 0 -12 -7 -16 -15 -3 -8
-11 -13 -18 -11 -7 1 -10 1 -6 -1 4 -2 4 -11 1 -18 -4 -12 -7 -12 -19 0 -19
19 -18 24 9 35 12 5 15 9 7 9 -8 0 -23 -6 -32 -13z"/>
<path d="M2790 2393 c13 -11 31 -18 39 -15 8 3 12 1 8 -5 -4 -6 0 -16 8 -23
17 -14 20 -3 5 20 -6 9 -5 17 1 21 6 3 -2 6 -18 6 -15 0 -37 3 -48 8 -16 6
-15 4 5 -12z"/>
<path d="M3830 2406 c0 -2 7 -7 16 -10 8 -3 12 -2 9 4 -6 10 -25 14 -25 6z"/>
<path d="M3835 2369 c-4 -6 -5 -12 -2 -15 2 -3 7 2 10 11 7 17 1 20 -8 4z"/>
<path d="M2794 2344 c3 -9 6 -17 6 -20 0 -2 8 0 18 3 15 6 16 5 2 -12 -14 -17
-13 -17 9 -10 18 5 22 4 16 -5 -5 -9 -4 -11 4 -6 13 8 41 -10 41 -26 0 -6 -7
-5 -15 2 -9 7 -18 10 -22 7 -3 -4 10 -14 30 -22 43 -18 47 -18 47 -5 0 6 -6 9
-12 8 -7 -2 -12 3 -10 10 1 6 -3 12 -9 12 -5 0 -7 5 -4 10 3 6 2 10 -3 10 -6
0 -8 10 -5 23 5 21 5 21 -10 3 -13 -17 -17 -18 -30 -5 -49 43 -63 50 -53 23z"/>
<path d="M2960 2340 c14 -27 29 -34 23 -11 -3 11 -11 22 -19 25 -11 4 -12 2
-4 -14z"/>
<path d="M3690 2345 c0 -8 2 -15 4 -15 2 0 6 7 10 15 3 8 1 15 -4 15 -6 0 -10
-7 -10 -15z"/>
<path d="M3804 2349 c-3 -6 0 -15 7 -20 29 -18 39 -7 15 17 -11 10 -17 11 -22
3z"/>
<path d="M2908 2343 c7 -3 16 -2 19 1 4 3 -2 6 -13 5 -11 0 -14 -3 -6 -6z"/>
<path d="M3631 2341 c-12 -8 -12 -12 2 -26 16 -15 17 -15 17 3 0 11 6 23 13
25 8 4 7 6 -3 6 -8 0 -21 -3 -29 -8z"/>
<path d="M2650 2320 c0 -5 5 -10 11 -10 5 0 7 5 4 10 -3 6 -8 10 -11 10 -2 0
-4 -4 -4 -10z"/>
<path d="M2932 2310 c-15 -24 -15 -30 -2 -30 6 0 10 7 10 15 0 8 5 15 10 15 6
0 10 5 10 10 0 16 -14 11 -28 -10z"/>
<path d="M3048 2295 c-3 -14 -1 -28 3 -31 5 -3 9 9 9 25 0 38 -6 40 -12 6z"/>
<path d="M3506 2281 c-4 -7 -5 -15 -2 -18 9 -9 19 4 14 18 -4 11 -6 11 -12 0z"/>
<path d="M3480 2240 c0 -5 9 -14 20 -20 11 -6 20 -9 20 -8 0 2 -9 11 -20 21
-11 9 -20 13 -20 7z"/>
<path d="M2701 2214 c0 -11 3 -14 6 -6 3 7 2 16 -1 19 -3 4 -6 -2 -5 -13z"/>
<path d="M2760 2222 c0 -7 -8 -12 -17 -12 -15 0 -16 -2 -3 -10 10 -6 17 -4 23
6 5 9 6 18 3 21 -3 4 -6 1 -6 -5z"/>
<path d="M3240 2219 c0 -5 5 -7 10 -4 6 3 10 8 10 11 0 2 -4 4 -10 4 -5 0 -10
-5 -10 -11z"/>
<path d="M3394 2212 c1 -17 19 -17 24 0 3 10 1 10 -6 -1 -9 -12 -11 -12 -14 0
-3 9 -5 10 -4 1z"/>
<path d="M3460 2209 c0 -5 5 -7 10 -4 6 3 10 8 10 11 0 2 -4 4 -10 4 -5 0 -10
-5 -10 -11z"/>
<path d="M3768 2203 c7 -3 16 -2 19 1 4 3 -2 6 -13 5 -11 0 -14 -3 -6 -6z"/>
<path d="M2746 2139 c17 -34 26 -35 18 -2 -3 12 -12 24 -20 27 -12 4 -11 0 2
-25z"/>
<path d="M3805 2140 c-3 -5 -1 -10 4 -10 6 0 11 5 11 10 0 6 -2 10 -4 10 -3 0
-8 -4 -11 -10z"/>
<path d="M3665 2100 c-3 -5 -1 -10 4 -10 6 0 11 5 11 10 0 6 -2 10 -4 10 -3 0
-8 -4 -11 -10z"/>
<path d="M2712 1990 c0 -14 2 -19 5 -12 2 6 2 18 0 25 -3 6 -5 1 -5 -13z"/>
<path d="M3983 1988 c-2 -16 1 -18 10 -9 7 7 8 14 1 21 -6 6 -10 2 -11 -12z"/>
<path d="M2770 1989 c0 -5 5 -7 10 -4 6 3 10 8 10 11 0 2 -4 4 -10 4 -5 0 -10
-5 -10 -11z"/>
<path d="M3405 1990 c-3 -5 1 -10 9 -10 9 0 16 5 16 10 0 6 -4 10 -9 10 -6 0
-13 -4 -16 -10z"/>
<path d="M2865 1960 c-3 -5 -1 -10 4 -10 6 0 11 5 11 10 0 6 -2 10 -4 10 -3 0
-8 -4 -11 -10z"/>
<path d="M2978 1933 c7 -3 16 -2 19 1 4 3 -2 6 -13 5 -11 0 -14 -3 -6 -6z"/>
<path d="M3120 1861 c0 -10 36 -21 44 -14 3 3 3 10 0 14 -7 12 -44 12 -44 0z"/>
<path d="M4115 1840 c-3 -6 1 -7 9 -4 18 7 21 14 7 14 -6 0 -13 -4 -16 -10z"/>
<path d="M4150 1831 c0 -5 5 -13 10 -16 6 -3 10 -2 10 4 0 5 -4 13 -10 16 -5
3 -10 2 -10 -4z"/>
<path d="M3860 1819 c0 -5 5 -7 10 -4 6 3 10 8 10 11 0 2 -4 4 -10 4 -5 0 -10
-5 -10 -11z"/>
<path d="M4085 1820 c-3 -5 -1 -10 4 -10 6 0 11 5 11 10 0 6 -2 10 -4 10 -3 0
-8 -4 -11 -10z"/>
<path d="M3664 1773 c2 -14 0 -20 -9 -17 -7 3 -16 1 -20 -5 -4 -7 4 -11 19
-11 28 0 30 4 15 35 -9 19 -9 19 -5 -2z"/>
<path d="M4069 1781 c9 -6 10 -11 2 -15 -14 -9 -14 -26 -1 -26 6 0 9 6 8 13
-2 6 3 11 10 10 18 -4 15 14 -4 21 -23 9 -31 7 -15 -3z"/>
<path d="M4000 1760 c-9 -6 -10 -10 -3 -10 6 0 15 5 18 10 8 12 4 12 -15 0z"/>
<path d="M3040 1745 c0 -8 4 -15 10 -15 5 0 7 7 4 15 -4 8 -8 15 -10 15 -2 0
-4 -7 -4 -15z"/>
<path d="M2930 1729 c0 -6 7 -9 15 -5 11 4 15 -1 15 -19 0 -16 6 -25 15 -25
18 0 18 1 5 34 -9 26 -50 38 -50 15z"/>
<path d="M4040 1700 c0 -16 -3 -30 -7 -30 -5 0 -9 -16 -10 -35 -1 -20 3 -33 8
-30 5 4 9 13 9 20 0 8 6 12 14 9 8 -3 17 0 21 6 4 7 1 10 -10 8 -10 -2 -20 3
-23 10 -2 7 2 13 9 11 29 -3 37 2 35 26 -1 27 -16 35 -16 9 0 -8 -5 -12 -11
-9 -6 4 -8 13 -5 21 3 8 1 14 -4 14 -6 0 -10 -13 -10 -30z"/>
<path d="M4105 1720 c-3 -5 -1 -10 4 -10 6 0 11 5 11 10 0 6 -2 10 -4 10 -3 0
-8 -4 -11 -10z"/>
<path d="M3991 1694 c13 -16 29 -19 29 -5 0 5 -9 11 -21 14 -16 4 -18 3 -8 -9z"/>
<path d="M4101 1670 c11 -30 29 -36 37 -12 2 7 -2 10 -11 6 -10 -3 -14 0 -14
12 1 9 -4 19 -10 21 -10 4 -10 -3 -2 -27z"/>
<path d="M3412 1655 c-17 -37 -14 -45 4 -12 9 16 14 31 11 33 -2 2 -9 -7 -15
-21z"/>
<path d="M3978 1663 c7 -3 16 -2 19 1 4 3 -2 6 -13 5 -11 0 -14 -3 -6 -6z"/>
<path d="M4160 1655 c-8 -9 -8 -15 -2 -15 12 0 26 19 19 26 -2 2 -10 -2 -17
-11z"/>
<path d="M2920 1620 c0 -5 7 -10 16 -10 8 0 12 5 9 10 -3 6 -10 10 -16 10 -5
0 -9 -4 -9 -10z"/>
<path d="M2390 3761 c0 -6 4 -13 10 -16 6 -3 7 1 4 9 -7 18 -14 21 -14 7z"/>
<path d="M3091 1454 c-7 -8 -11 -17 -9 -20 3 -2 13 5 23 16 10 11 14 20 9 20
-5 -1 -15 -8 -23 -16z"/>
<path d="M3110 1435 c-17 -21 -9 -27 13 -10 10 7 14 16 9 19 -5 3 -15 -1 -22
-9z"/>
<path d="M5759 4223 c-13 -16 -12 -17 4 -4 16 13 21 21 13 21 -2 0 -10 -8 -17
-17z"/>
<path d="M829 3803 c-16 -7 -29 -16 -29 -21 0 -5 -10 -13 -21 -18 l-22 -10 26
-27 25 -28 44 19 c23 11 51 23 61 26 10 3 16 10 12 15 -3 6 4 15 16 22 l23 12
-27 13 c-29 16 -66 15 -108 -3z"/>
<path d="M1186 3763 c-11 -3 -26 -11 -34 -19 -7 -8 -17 -12 -22 -9 -9 5 -25
-24 -21 -39 1 -5 -3 -12 -9 -16 -8 -5 -7 -12 4 -23 9 -8 16 -25 16 -36 0 -12
5 -21 10 -21 6 0 10 -8 10 -18 0 -9 13 -28 29 -41 28 -24 29 -26 15 -53 -16
-30 -12 -48 11 -48 7 0 31 -18 53 -40 21 -22 44 -40 51 -40 7 0 10 -4 7 -9 -3
-5 3 -20 14 -34 l20 -26 -22 -15 c-17 -12 -18 -16 -6 -16 34 0 108 -54 108
-78 0 -6 7 -23 15 -38 20 -38 19 -98 -1 -119 -9 -9 -29 -19 -45 -22 -16 -3
-29 -9 -29 -14 0 -5 -7 -9 -15 -9 -8 0 -15 -4 -15 -8 0 -8 -58 -32 -78 -32 -7
0 -12 7 -12 15 0 23 -41 19 -47 -5 -3 -11 -10 -20 -15 -20 -6 0 -8 9 -5 20 6
25 -19 27 -52 4 -18 -13 -20 -19 -10 -26 11 -8 10 -9 -4 -4 -19 6 -47 -11
-197 -119 -81 -59 -111 -88 -132 -126 -90 -160 6 -379 179 -405 60 -9 134 16
243 84 66 41 94 64 92 75 -2 10 2 17 8 17 5 0 10 -5 10 -11 0 -5 4 -7 10 -4
13 8 -10 32 -30 31 -16 -1 -17 47 0 94 4 14 11 37 14 53 4 15 11 27 18 27 6 0
17 8 24 18 8 10 13 12 14 5 0 -17 20 -16 39 1 9 7 27 17 41 20 17 5 21 4 12
-2 -11 -7 -7 -12 15 -19 15 -6 38 -9 51 -7 23 4 30 -10 10 -20 -7 -4 -3 -4 10
-2 12 2 20 0 16 -5 -3 -5 2 -9 10 -9 9 0 16 -5 16 -11 0 -7 -12 -8 -32 -4 -22
4 -28 3 -19 -3 7 -5 11 -15 7 -21 -5 -7 -1 -8 11 -4 25 9 89 52 86 58 -2 3 -2
8 -2 13 1 4 2 14 3 22 0 8 11 20 24 25 20 9 23 16 21 55 -4 74 0 84 41 114 47
35 49 48 15 80 -18 17 -25 34 -25 60 0 20 5 36 10 36 6 0 10 10 10 23 0 12 9
36 20 52 29 44 25 60 -25 89 -25 15 -45 31 -45 35 0 5 -22 8 -49 7 -46 -3 -52
0 -100 47 -28 27 -51 53 -51 58 0 5 -6 9 -14 9 -8 0 -16 6 -19 13 -3 7 -23 19
-46 27 -23 7 -41 19 -41 27 0 7 -6 13 -13 13 -8 0 -22 17 -33 38 -10 20 -21
39 -25 42 -10 10 -39 96 -39 118 0 12 5 42 12 67 11 39 10 48 -2 55 -16 10
-42 11 -74 3z m-86 -863 c0 -5 -4 -10 -10 -10 -5 0 -10 5 -10 10 0 6 5 10 10
10 6 0 10 -4 10 -10z m-18 -114 c9 -13 -10 -36 -29 -36 -19 0 -38 20 -39 42
-1 14 4 16 30 11 17 -3 34 -11 38 -17z m528 -150 c0 -11 -19 -15 -25 -6 -3 5
1 10 9 10 9 0 16 -2 16 -4z"/>
<path d="M5286 3648 c3 -10 1 -18 -5 -18 -7 0 -10 -13 -7 -35 3 -19 1 -33 -4
-30 -4 3 -10 -1 -13 -8 -7 -19 4 -117 14 -117 5 0 9 -6 9 -13 0 -18 43 -37 69
-30 14 3 21 1 21 -8 0 -11 2 -11 10 1 13 21 12 95 -2 143 -6 21 -31 60 -55 86
-24 25 -40 38 -37 29z m24 -27 c0 -5 -7 -11 -14 -14 -10 -4 -13 -1 -9 9 6 15
23 19 23 5z"/>
<path d="M5687 3373 c-9 -2 -14 -9 -11 -15 4 -7 2 -8 -4 -4 -7 4 -46 -11 -88
-34 -45 -23 -69 -40 -56 -40 11 0 24 5 27 10 3 6 12 10 18 10 17 -1 -32 -40
-50 -40 -8 0 -12 -4 -9 -9 8 -13 -42 -23 -62 -12 -21 12 -76 -14 -66 -31 5 -8
2 -9 -9 -5 -25 9 -22 -44 4 -77 22 -28 59 -35 59 -11 0 19 46 37 74 30 37 -11
85 -39 88 -51 2 -10 11 -9 36 1 27 12 32 19 32 50 0 19 4 35 8 35 5 0 10 23
11 50 1 28 10 73 21 100 20 51 19 54 -23 43z"/>
<path d="M576 3332 c-3 -5 -5 -49 -4 -98 0 -49 -2 -100 -6 -112 -7 -21 -6 -21
21 -11 51 19 129 109 95 109 -16 0 -72 57 -72 73 0 36 -21 60 -34 39z"/>
<path d="M1020 3264 c0 -8 5 -12 10 -9 6 3 10 10 10 16 0 5 -4 9 -10 9 -5 0
-10 -7 -10 -16z"/>
<path d="M1046 3215 c-3 -9 1 -18 10 -22 19 -7 39 11 30 26 -10 16 -33 13 -40
-4z"/>
<path d="M1080 3180 c0 -5 4 -10 9 -10 6 0 13 5 16 10 3 6 -1 10 -9 10 -9 0
-16 -4 -16 -10z"/>
<path d="M952 3113 c-10 -4 -10 -8 -1 -19 8 -10 16 -11 31 -3 17 9 18 13 7 20
-15 10 -18 10 -37 2z"/>
<path d="M6092 3070 c0 -14 2 -19 5 -12 2 6 2 18 0 25 -3 6 -5 1 -5 -13z"/>
<path d="M6045 3031 c-15 -17 -32 -28 -38 -24 -5 3 -6 -3 -2 -16 3 -12 3 -21
-2 -20 -20 3 -27 -2 -13 -11 12 -8 11 -10 -7 -10 -18 0 -22 -5 -20 -22 1 -17
-3 -23 -15 -22 -22 2 -23 -9 -4 -25 12 -10 23 -3 58 35 69 74 91 110 81 128
-8 14 -13 12 -38 -13z m32 -7 c-3 -3 -12 -4 -19 -1 -8 3 -5 6 6 6 11 1 17 -2
13 -5z"/>
<path d="M2 1523 l-2 -1523 1513 1 c831 1 1469 5 1417 10 -246 20 -592 94
-790 169 -30 12 -75 28 -100 37 -25 8 -90 36 -145 61 -677 309 -1211 816
-1539 1462 -210 412 -310 776 -349 1265 -2 22 -4 -645 -5 -1482z"/>
<path d="M1215 3010 c-3 -5 -1 -10 4 -10 6 0 11 5 11 10 0 6 -2 10 -4 10 -3 0
-8 -4 -11 -10z"/>
<path d="M6390 2967 c0 -64 -22 -229 -51 -382 -153 -816 -658 -1576 -1354
-2039 -245 -162 -406 -246 -660 -341 -292 -108 -554 -166 -905 -199 -19 -1
643 -4 1473 -4 l1507 -2 0 1510 c0 831 -2 1510 -5 1510 -3 0 -5 -24 -5 -53z"/>
<path d="M534 2996 c-3 -8 -14 -12 -27 -9 -22 5 -22 5 1 -12 13 -9 42 -19 65
-21 23 -2 35 -1 26 2 -9 3 -22 16 -29 29 -15 28 -28 32 -36 11z"/>
<path d="M1185 2990 c-3 -5 -1 -10 4 -10 6 0 11 5 11 10 0 6 -2 10 -4 10 -3 0
-8 -4 -11 -10z"/>
<path d="M1840 2939 c0 -11 5 -17 10 -14 6 3 10 13 10 21 0 8 -4 14 -10 14 -5
0 -10 -9 -10 -21z"/>
<path d="M1864 2895 c16 -9 35 -23 42 -33 13 -16 13 -16 14 1 0 11 8 17 22 17
42 0 3 17 -52 24 -53 5 -54 5 -26 -9z"/>
<path d="M5910 2876 c0 -2 7 -9 15 -16 13 -11 14 -10 9 4 -5 14 -24 23 -24 12z"/>
<path d="M1490 2550 c-9 -6 -10 -10 -3 -10 6 0 15 5 18 10 8 12 4 12 -15 0z"/>
<path d="M2478 1933 c7 -3 16 -2 19 1 4 3 -2 6 -13 5 -11 0 -14 -3 -6 -6z"/>
<path d="M1986 1914 c18 -15 18 -15 0 -10 -16 6 -17 4 -6 -9 15 -18 45 -21 34
-3 -4 6 -3 9 2 5 5 -3 29 -8 53 -12 24 -3 51 -10 60 -15 35 -18 99 -32 112
-25 9 6 11 2 6 -16 l-6 -24 19 25 c28 35 25 40 -20 40 -22 0 -72 11 -111 25
-38 13 -91 27 -116 30 -44 5 -46 4 -27 -11z"/>
<path d="M2420 1875 c0 -9 5 -15 11 -13 6 2 11 8 11 13 0 5 -5 11 -11 13 -6 2
-11 -4 -11 -13z"/>
<path d="M2270 1771 c0 -5 3 -11 8 -14 4 -2 1 -2 -7 0 -21 5 -52 -7 -46 -18 4
-5 14 -9 24 -9 10 0 24 -7 31 -15 10 -12 6 -13 -27 -9 l-38 4 33 -13 c18 -7
30 -16 26 -20 -8 -8 27 -38 37 -31 4 2 18 0 31 -5 l23 -10 -23 0 c-29 -1 -19
-21 11 -22 21 -1 20 -2 -3 -9 -24 -9 -24 -9 5 -7 24 2 30 6 29 25 0 12 4 22 9
22 5 0 6 7 3 16 -3 8 -2 12 3 9 5 -3 13 0 16 5 11 18 -90 110 -120 110 -14 0
-25 -4 -25 -9z m57 -77 c-3 -3 -12 -4 -19 -1 -8 3 -5 6 6 6 11 1 17 -2 13 -5z"/>
<path d="M2626 1764 c-5 -14 -4 -15 9 -4 17 14 19 20 6 20 -5 0 -12 -7 -15
-16z"/>
<path d="M2620 1730 c-9 -6 -10 -10 -3 -10 6 0 15 5 18 10 8 12 4 12 -15 0z"/>
<path d="M2210 1670 c0 -5 5 -10 10 -10 6 0 10 5 10 10 0 6 -4 10 -10 10 -5 0
-10 -4 -10 -10z"/>
<path d="M2423 1653 c-7 -2 -13 -9 -13 -15 0 -6 6 -6 15 2 18 15 20 -1 3 -18
-9 -9 -9 -12 1 -12 7 0 9 -5 5 -12 -4 -7 -3 -8 5 -4 6 4 9 11 6 16 -3 4 5 6
17 3 l23 -6 -24 27 c-14 14 -25 26 -25 25 -1 0 -7 -3 -13 -6z"/>
<path d="M2190 1639 c0 -5 5 -7 10 -4 6 3 10 8 10 11 0 2 -4 4 -10 4 -5 0 -10
-5 -10 -11z"/>
<path d="M2606 1634 c-9 -23 -2 -28 13 -10 7 8 8 17 3 20 -6 3 -13 -1 -16 -10z"/>
<path d="M2543 1633 c-15 -5 -17 -23 -4 -23 5 0 11 7 15 15 3 8 4 15 3 14 -1
0 -8 -3 -14 -6z"/>
<path d="M2475 1580 c-5 -8 -21 -10 -41 -7 -21 4 -32 2 -29 -4 8 -13 72 -12
80 2 4 6 5 13 2 15 -3 3 -8 0 -12 -6z"/>
<path d="M2580 1575 c-11 -13 -10 -14 4 -9 9 3 16 10 16 15 0 13 -6 11 -20 -6z"/>
<path d="M2270 1569 c0 -5 5 -7 10 -4 6 3 10 8 10 11 0 2 -4 4 -10 4 -5 0 -10
-5 -10 -11z"/>
<path d="M2312 1565 c-10 -12 -10 -15 2 -15 7 0 16 7 20 15 7 19 -5 19 -22 0z"/>
<path d="M2351 1558 c0 -13 3 -17 6 -10 2 6 11 12 19 12 8 0 14 5 14 10 0 6
-9 10 -20 10 -14 0 -20 -6 -19 -22z"/>
<path d="M2235 1560 c3 -5 8 -10 11 -10 2 0 4 5 4 10 0 6 -5 10 -11 10 -5 0
-7 -4 -4 -10z"/>
<path d="M2580 1539 c0 -5 5 -7 10 -4 6 3 10 8 10 11 0 2 -4 4 -10 4 -5 0 -10
-5 -10 -11z"/>
<path d="M2624 1534 c-18 -14 -18 -15 4 -4 12 6 22 13 22 15 0 8 -5 6 -26 -11z"/>
<path d="M2205 1530 c-3 -6 1 -7 9 -4 18 7 21 14 7 14 -6 0 -13 -4 -16 -10z"/>
<path d="M2530 1530 c8 -5 10 -10 4 -10 -7 0 -9 -11 -6 -25 2 -14 8 -25 13
-25 5 0 9 -4 9 -10 0 -5 -8 -10 -17 -10 -15 0 -16 -2 -3 -10 8 -5 11 -10 5
-10 -5 0 1 -7 15 -15 14 -8 20 -14 14 -15 -7 0 -15 -7 -18 -16 -3 -8 -2 -12 4
-9 14 9 51 -5 44 -16 -3 -5 -11 -8 -18 -7 -6 2 -13 0 -14 -4 -1 -5 1 -7 4 -5
3 1 10 -6 15 -15 7 -13 15 -15 33 -8 19 7 26 5 30 -7 4 -9 1 -20 -6 -25 -9 -5
-6 -8 10 -8 14 0 21 -4 16 -11 -4 -8 0 -8 15 0 29 16 27 33 -14 92 -19 28 -35
55 -35 60 0 4 10 15 23 25 22 17 16 16 -30 -3 -6 -2 -29 18 -49 46 -21 28 -43
51 -49 51 -5 0 -3 -5 5 -10z m55 -80 c3 -6 -1 -7 -9 -4 -18 7 -21 14 -7 14 6
0 13 -4 16 -10z"/>
<path d="M2345 1520 c3 -5 8 -10 11 -10 2 0 4 5 4 10 0 6 -5 10 -11 10 -5 0
-7 -4 -4 -10z"/>
<path d="M2637 1516 c-17 -13 -17 -14 0 -20 15 -6 15 -8 3 -16 -9 -6 -10 -10
-3 -10 17 0 29 23 14 28 -9 3 -9 7 0 18 14 17 9 17 -14 0z"/>
<path d="M3973 1504 c-18 -8 -33 -16 -33 -18 0 -10 55 3 58 13 4 12 26 -5 33
-27 3 -10 9 -8 23 7 17 19 17 19 -3 14 -15 -4 -21 -1 -21 11 0 19 -14 19 -57
0z"/>
<path d="M1800 1488 c-47 -13 -87 -52 -116 -113 -30 -64 -30 -86 2 -120 20
-22 31 -26 55 -21 41 8 85 40 120 88 36 50 45 97 27 134 -16 34 -43 44 -88 32z"/>
<path d="M2320 1490 c0 -5 5 -10 11 -10 5 0 7 5 4 10 -3 6 -8 10 -11 10 -2 0
-4 -4 -4 -10z"/>
<path d="M2685 1490 c3 -5 8 -10 11 -10 2 0 4 5 4 10 0 6 -5 10 -11 10 -5 0
-7 -4 -4 -10z"/>
<path d="M4091 1488 c-1 -10 -9 -18 -18 -18 -15 0 -16 -2 -3 -10 8 -5 38 -9
65 -8 49 1 50 1 11 7 -26 4 -42 13 -47 26 -6 17 -8 17 -8 3z"/>
<path d="M4120 1480 c0 -5 5 -10 11 -10 5 0 7 5 4 10 -3 6 -8 10 -11 10 -2 0
-4 -4 -4 -10z"/>
<path d="M3316 1465 c-11 -8 -17 -17 -14 -21 7 -6 48 17 48 28 0 12 -13 9 -34
-7z"/>
<path d="M3990 1470 c0 -5 5 -10 11 -10 5 0 7 5 4 10 -3 6 -8 10 -11 10 -2 0
-4 -4 -4 -10z"/>
<path d="M3930 1440 c-13 -9 -13 -10 0 -9 8 1 26 5 40 9 l25 8 -25 1 c-14 0
-32 -4 -40 -9z"/>
<path d="M4076 1438 c3 -4 15 -9 27 -9 17 -1 15 -3 -8 -9 -24 -6 -26 -8 -7 -9
21 -1 33 -31 12 -31 -5 0 -10 5 -10 11 0 5 -5 7 -11 3 -8 -5 -8 -8 0 -14 7 -4
11 -13 9 -20 -2 -9 9 -16 27 -20 20 -4 25 -8 15 -11 -19 -8 -60 7 -60 21 0 5
-4 10 -10 10 -16 0 -1 -25 28 -43 l27 -18 -35 6 -35 6 35 -21 c22 -13 26 -18
13 -15 -32 9 -29 -13 2 -25 25 -9 35 -30 14 -30 -5 0 -8 4 -5 9 3 5 -2 11 -12
14 -9 2 -25 8 -35 12 -13 5 -16 3 -11 -8 3 -8 15 -17 26 -20 12 -4 17 -10 13
-17 -5 -9 -10 -9 -18 -1 -6 6 -17 11 -25 11 -12 0 -12 -3 -2 -15 7 -8 21 -15
31 -15 26 0 34 -20 10 -27 -17 -4 -31 -23 -17 -23 2 0 12 -3 22 -7 13 -5 15
-3 9 8 -6 11 -5 12 6 2 15 -15 33 -17 24 -4 -3 5 -1 12 4 16 6 3 8 12 4 20 -3
9 1 15 8 15 10 0 10 3 1 12 -18 18 -15 35 9 57 25 23 19 54 -8 44 -15 -6 -16
-5 -3 9 8 8 20 14 26 11 15 -6 27 28 14 41 -7 7 -10 5 -10 -7 0 -20 -9 -21
-30 -6 -13 9 -12 10 3 5 9 -3 17 -1 17 4 0 5 -10 12 -21 15 -17 6 -19 9 -8 16
8 5 10 9 4 10 -5 0 -1 4 10 9 17 7 17 9 3 9 -10 1 -18 5 -18 10 0 5 -13 11
-29 13 -17 2 -28 1 -25 -4z m37 -242 c4 -10 1 -13 -9 -9 -15 6 -19 23 -5 23 5
0 11 -7 14 -14z"/>
<path d="M4148 1433 c7 -3 16 -2 19 1 4 3 -2 6 -13 5 -11 0 -14 -3 -6 -6z"/>
<path d="M4188 1433 c6 -2 18 -2 25 0 6 3 1 5 -13 5 -14 0 -19 -2 -12 -5z"/>
<path d="M3400 1410 c0 -5 8 -10 18 -10 10 0 22 -4 28 -9 5 -6 17 -4 29 6 19
15 19 15 -7 9 -15 -3 -30 -2 -33 4 -8 13 -35 13 -35 0z"/>
<path d="M4190 1410 c0 -5 4 -10 9 -10 6 0 13 5 16 10 3 6 -1 10 -9 10 -9 0
-16 -4 -16 -10z"/>
<path d="M2368 1403 c7 -3 16 -2 19 1 4 3 -2 6 -13 5 -11 0 -14 -3 -6 -6z"/>
<path d="M3420 1377 c0 -8 -12 -19 -26 -26 -15 -6 -24 -15 -20 -18 3 -4 19 3
34 14 25 18 30 19 48 6 18 -14 18 -14 -7 -8 -18 4 -30 1 -40 -11 -12 -16 -12
-17 3 -11 9 3 18 2 20 -4 2 -5 13 -2 26 7 l23 16 -26 24 c-30 28 -35 29 -35
11z"/>
<path d="M3793 1383 c9 -2 23 -2 30 0 6 3 -1 5 -18 5 -16 0 -22 -2 -12 -5z"/>
<path d="M3980 1380 c8 -5 20 -10 25 -10 6 0 3 5 -5 10 -8 5 -19 10 -25 10 -5
0 -3 -5 5 -10z"/>
<path d="M3807 1359 c7 -7 15 -10 18 -7 3 3 -2 9 -12 12 -14 6 -15 5 -6 -5z"/>
<path d="M3906 1359 c3 -5 0 -9 -7 -9 -7 0 -10 -2 -7 -5 3 -3 16 -2 28 3 l24
9 -22 5 c-12 4 -20 2 -16 -3z"/>
<path d="M3340 1350 c0 -5 5 -10 10 -10 6 0 10 5 10 10 0 6 -4 10 -10 10 -5 0
-10 -4 -10 -10z"/>
<path d="M4020 1340 c0 -5 5 -10 11 -10 5 0 7 5 4 10 -3 6 -8 10 -11 10 -2 0
-4 -4 -4 -10z"/>
<path d="M3990 1330 c-13 -8 -12 -10 3 -10 9 0 17 5 17 10 0 12 -1 12 -20 0z"/>
<path d="M2390 1320 c8 -5 20 -10 25 -10 6 0 3 5 -5 10 -8 5 -19 10 -25 10 -5
0 -3 -5 5 -10z"/>
<path d="M3828 1321 c11 -6 10 -10 -4 -15 -9 -3 -14 -9 -11 -13 9 -8 38 17 31
28 -3 5 -11 9 -17 9 -8 0 -8 -3 1 -9z"/>
<path d="M2350 1310 c0 -5 5 -10 11 -10 5 0 7 5 4 10 -3 6 -8 10 -11 10 -2 0
-4 -4 -4 -10z"/>
<path d="M3450 1305 c-15 -18 0 -20 19 -2 11 10 13 9 8 -5 -3 -9 0 -19 7 -21
8 -3 12 3 11 16 -2 27 -27 33 -45 12z"/>
<path d="M3685 1299 c-39 -24 -21 -24 25 1 19 11 28 19 20 19 -8 0 -28 -9 -45
-20z"/>
<path d="M3866 1304 c-11 -8 -16 -14 -10 -14 13 0 39 18 34 24 -3 2 -14 -2
-24 -10z"/>
<path d="M3778 1303 c7 -3 16 -2 19 1 4 3 -2 6 -13 5 -11 0 -14 -3 -6 -6z"/>
<path d="M3678 1264 c-45 -23 -67 -43 -33 -31 8 4 17 2 20 -3 4 -6 0 -10 -7
-10 -10 0 -10 -2 1 -9 11 -7 10 -10 -4 -18 -12 -7 -14 -13 -6 -17 6 -4 11 -2
11 3 0 6 5 11 11 11 6 0 22 9 36 20 15 11 29 18 32 15 3 -4 -1 -10 -9 -15 -8
-5 -11 -12 -7 -16 4 -4 13 1 21 11 9 13 15 15 20 6 5 -7 0 -22 -11 -33 l-18
-22 27 20 c28 20 36 34 18 34 -7 0 -7 8 1 23 9 18 9 20 -2 10 -7 -7 -20 -13
-28 -13 -11 0 -10 5 5 22 12 14 3 10 -22 -10 -23 -18 -48 -32 -55 -32 -9 1 -7
6 5 15 18 14 18 15 2 15 -9 0 -14 5 -11 10 3 6 16 8 29 4 15 -3 28 2 41 18
l20 23 -21 -17 c-11 -10 -27 -18 -34 -18 -9 0 -7 5 6 15 27 21 16 18 -38 -11z"/>
<path d="M3990 1280 c-13 -9 -13 -10 0 -10 8 0 22 5 30 10 13 9 13 10 0 10 -8
0 -22 -5 -30 -10z"/>
<path d="M4045 1280 c-3 -5 -1 -10 4 -10 6 0 11 5 11 10 0 6 -2 10 -4 10 -3 0
-8 -4 -11 -10z"/>
<path d="M3805 1270 c-3 -5 -2 -10 4 -10 5 0 13 5 16 10 3 6 2 10 -4 10 -5 0
-13 -4 -16 -10z"/>
<path d="M3890 1270 c-9 -6 -10 -10 -3 -10 6 0 15 5 18 10 8 12 4 12 -15 0z"/>
<path d="M2690 1263 c0 -5 5 -15 10 -23 8 -12 10 -11 10 8 0 12 -4 22 -10 22
-5 0 -10 -3 -10 -7z"/>
<path d="M3978 1253 c7 -3 16 -2 19 1 4 3 -2 6 -13 5 -11 0 -14 -3 -6 -6z"/>
<path d="M3810 1250 c-8 -27 -5 -47 7 -43 7 3 14 -1 14 -8 1 -8 2 -20 3 -28 0
-8 8 -16 16 -18 12 -4 13 -3 1 5 -11 8 -8 13 13 27 21 14 29 15 41 5 9 -7 18
-10 22 -6 3 3 0 6 -8 6 -10 1 -8 5 5 15 11 8 14 15 7 15 -7 0 -9 5 -6 10 4 6
-7 10 -27 9 -21 -1 -26 -3 -13 -6 27 -7 39 -19 26 -27 -6 -4 -11 -2 -11 4 0 7
-9 5 -22 -4 -29 -21 -39 -20 -31 1 4 11 3 14 -5 9 -8 -4 -16 2 -21 16 -6 13
-10 21 -11 18z"/>
<path d="M2440 1230 c0 -5 5 -10 11 -10 5 0 7 5 4 10 -3 6 -8 10 -11 10 -2 0
-4 -4 -4 -10z"/>
<path d="M2500 1231 c0 -5 7 -12 16 -15 14 -5 15 -4 4 9 -14 17 -20 19 -20 6z"/>
<path d="M2416 1203 c-6 -14 -5 -15 5 -6 7 7 10 15 7 18 -3 3 -9 -2 -12 -12z"/>
<path d="M3290 1209 c0 -5 5 -7 10 -4 6 3 10 8 10 11 0 2 -4 4 -10 4 -5 0 -10
-5 -10 -11z"/>
<path d="M3266 1194 c-7 -17 4 -22 31 -15 l22 6 -24 11 c-19 9 -25 9 -29 -2z"/>
<path d="M3950 1206 c0 -2 14 -9 31 -15 27 -9 30 -9 19 4 -11 13 -50 22 -50
11z"/>
<path d="M2721 1184 c0 -11 3 -14 6 -6 3 7 2 16 -1 19 -3 4 -6 -2 -5 -13z"/>
<path d="M3444 1179 c-7 -12 12 -29 33 -29 6 0 15 5 19 11 4 8 -1 9 -16 4 -19
-6 -22 -4 -17 9 7 18 -8 22 -19 5z"/>
<path d="M3510 1179 c0 -5 5 -7 10 -4 6 3 10 8 10 11 0 2 -4 4 -10 4 -5 0 -10
-5 -10 -11z"/>
<path d="M2540 1168 c0 -6 3 -8 7 -5 3 4 11 0 17 -9 10 -13 12 -13 12 3 0 11
-8 20 -18 20 -10 1 -18 -3 -18 -9z"/>
<path d="M2606 1166 c8 -21 -25 -49 -41 -36 -10 8 -15 8 -21 -1 -4 -7 -3 -9 4
-5 6 3 13 2 16 -2 7 -11 52 -8 48 3 -2 4 1 11 7 15 13 7 4 40 -10 40 -4 0 -6
-6 -3 -14z"/>
<path d="M3687 1163 c3 -7 1 -13 -3 -13 -5 -1 -22 -12 -39 -26 -20 -17 -23
-22 -8 -15 27 14 33 14 33 1 0 -5 -8 -10 -17 -11 -13 0 -11 -3 6 -10 17 -7 28
-6 35 2 8 9 6 10 -9 5 -19 -6 -19 -5 -2 8 9 7 17 16 17 19 0 4 -8 4 -17 0 -14
-4 -15 -3 -7 6 12 13 47 4 38 -10 -3 -5 -1 -9 5 -9 8 0 9 21 2 62 0 4 -10 6
-20 5 -11 0 -17 -6 -14 -14z m33 -7 c0 -3 -4 -8 -10 -11 -5 -3 -10 -1 -10 4 0
6 5 11 10 11 6 0 10 -2 10 -4z"/>
<path d="M3593 1156 c3 -7 1 -18 -5 -24 -6 -6 -6 -12 2 -17 6 -4 17 -2 23 4 9
9 7 10 -8 5 -19 -7 -19 -7 -2 13 16 19 17 21 1 27 -11 4 -15 2 -11 -8z"/>
<path d="M3756 1151 c-13 -14 -14 -21 -5 -27 7 -4 10 -3 6 3 -10 16 19 35 43
28 11 -4 20 -2 20 4 0 18 -46 12 -64 -8z"/>
<path d="M2479 1143 c-13 -16 -12 -17 4 -4 9 7 17 15 17 17 0 8 -8 3 -21 -13z"/>
<path d="M3635 1150 c-3 -6 1 -7 9 -4 18 7 21 14 7 14 -6 0 -13 -4 -16 -10z"/>
<path d="M3888 1153 c10 -4 8 -11 -9 -29 -24 -25 -50 -34 -30 -10 9 11 8 15
-5 20 -24 9 -46 7 -39 -4 3 -5 12 -7 20 -3 8 3 15 0 15 -7 0 -8 -9 -10 -25 -6
-14 4 -25 2 -25 -3 0 -4 16 -11 35 -14 29 -5 40 -1 69 26 l34 32 -26 1 c-15 1
-21 -1 -14 -3z"/>
<path d="M4013 1143 c9 -2 23 -2 30 0 6 3 -1 5 -18 5 -16 0 -22 -2 -12 -5z"/>
<path d="M3510 1126 c-9 -12 -5 -16 25 -22 20 -3 39 -4 42 0 4 3 -5 6 -20 6
-36 0 -44 18 -10 23 l28 4 -26 2 c-15 0 -32 -5 -39 -13z"/>
<path d="M2785 1117 c-4 -10 -5 -21 -1 -24 10 -10 18 4 13 24 -4 17 -4 17 -12
0z"/>
<path d="M3160 1120 c-13 -8 -13 -10 2 -10 9 0 20 5 23 10 8 13 -5 13 -25 0z"/>
<path d="M3275 1121 l-30 -7 27 -6 c17 -3 32 0 39 8 12 15 10 15 -36 5z"/>
<path d="M4026 1121 c-3 -4 13 -8 34 -8 22 0 38 2 36 5 -9 9 -65 12 -70 3z"/>
<path d="M3185 1097 c-16 -10 -22 -16 -12 -13 10 3 35 7 55 7 22 1 29 3 17 6
-11 3 -22 9 -25 13 -3 4 -18 -2 -35 -13z"/>
<path d="M3960 1110 c8 -5 22 -9 30 -9 10 0 8 3 -5 9 -27 12 -43 12 -25 0z"/>
<path d="M3316 1095 c-5 -13 -2 -14 17 -4 32 17 33 19 10 19 -12 0 -23 -7 -27
-15z"/>
<path d="M3474 1099 c-3 -5 2 -9 12 -9 14 0 15 -2 3 -17 -13 -16 -12 -17 3 -4
10 7 25 11 33 7 26 -10 16 2 -15 17 -17 9 -32 11 -36 6z"/>
<path d="M3763 1103 c-15 -5 -17 -23 -4 -23 5 0 11 7 15 15 3 8 4 15 3 14 -1
0 -8 -3 -14 -6z"/>
<path d="M3020 1096 c0 -2 9 -6 20 -9 11 -3 18 -1 14 4 -5 9 -34 13 -34 5z"/>
<path d="M3880 1090 c0 -5 5 -10 10 -10 6 0 10 5 10 10 0 6 -4 10 -10 10 -5 0
-10 -4 -10 -10z"/>
<path d="M4030 1090 c-12 -8 -11 -10 8 -10 12 0 22 5 22 10 0 13 -11 13 -30 0z"/>
<path d="M2807 1075 c-4 -8 -3 -16 1 -19 4 -3 9 4 9 15 2 23 -3 25 -10 4z"/>
<path d="M2904 1079 c-3 -6 -19 -9 -35 -5 -15 3 -31 1 -34 -4 -3 -6 0 -11 7
-12 7 0 18 -2 23 -2 6 -1 16 -5 23 -10 7 -4 19 -3 27 4 8 6 18 9 24 6 5 -3 11
1 15 9 3 8 0 17 -6 21 -7 4 -8 3 -4 -4 5 -8 -1 -12 -14 -12 -12 0 -18 5 -15
10 3 6 4 10 1 10 -3 0 -8 -5 -12 -11z"/>
<path d="M3967 1080 c13 -13 56 -23 49 -12 -3 5 -17 12 -32 15 -14 2 -22 1
-17 -3z"/>
<path d="M3190 1070 c0 -5 7 -7 15 -4 8 4 15 8 15 10 0 2 -7 4 -15 4 -8 0 -15
-4 -15 -10z"/>
<path d="M3321 1066 c-13 -7 -20 -16 -15 -19 5 -3 21 3 34 14 29 21 17 25 -19
5z"/>
<path d="M3808 1068 c-7 -19 2 -38 18 -38 9 0 12 -5 9 -10 -4 -6 -11 -8 -16
-5 -5 4 -9 1 -9 -5 0 -7 6 -10 14 -7 8 3 17 3 19 -1 2 -4 3 -2 1 4 -1 6 6 16
16 22 12 7 16 18 13 31 -3 12 -9 18 -15 15 -5 -3 -5 -11 2 -19 8 -9 6 -14 -5
-19 -8 -3 -15 -1 -15 4 0 6 -8 10 -17 10 -16 1 -16 2 1 15 16 12 17 15 4 15
-9 0 -18 -6 -20 -12z"/>
<path d="M4044 1064 c-19 -15 -19 -16 1 -9 11 4 25 8 32 8 7 0 10 4 7 9 -8 12
-18 10 -40 -8z"/>
<path d="M2225 1060 c-3 -6 1 -7 9 -4 18 7 21 14 7 14 -6 0 -13 -4 -16 -10z"/>
<path d="M3008 1063 c7 -3 16 -2 19 1 4 3 -2 6 -13 5 -11 0 -14 -3 -6 -6z"/>
<path d="M3150 1061 c0 -18 51 -34 64 -20 8 9 8 10 -1 5 -7 -4 -24 1 -38 10
-16 10 -25 12 -25 5z"/>
<path d="M3370 1060 c0 -5 5 -10 11 -10 5 0 7 5 4 10 -3 6 -8 10 -11 10 -2 0
-4 -4 -4 -10z"/>
<path d="M3666 1055 c-11 -8 -14 -15 -7 -15 7 0 9 -4 6 -10 -3 -5 -2 -10 4
-10 15 0 24 20 9 20 -8 1 -6 6 6 15 11 8 16 15 10 15 -5 0 -18 -7 -28 -15z"/>
<path d="M3750 1060 c0 -5 5 -10 11 -10 5 0 7 5 4 10 -3 6 -8 10 -11 10 -2 0
-4 -4 -4 -10z"/>
<path d="M3510 1056 c0 -2 7 -6 15 -10 8 -3 15 -1 15 4 0 6 -7 10 -15 10 -8 0
-15 -2 -15 -4z"/>
<path d="M3580 1049 c0 -5 5 -7 10 -4 6 3 10 8 10 11 0 2 -4 4 -10 4 -5 0 -10
-5 -10 -11z"/>
<path d="M3725 1050 c3 -5 8 -10 11 -10 2 0 4 5 4 10 0 6 -5 10 -11 10 -5 0
-7 -4 -4 -10z"/>
<path d="M3340 1040 c-12 -7 -12 -10 3 -16 21 -8 29 -3 19 13 -5 8 -13 9 -22
3z"/>
<path d="M3605 1041 c-3 -5 0 -13 6 -17 7 -4 9 -3 5 4 -3 5 0 13 6 15 9 4 10
6 1 6 -6 1 -14 -3 -18 -8z"/>
<path d="M3967 1039 c-9 -5 -21 -8 -26 -4 -5 3 -12 1 -16 -5 -4 -6 6 -10 24
-10 17 0 31 5 31 11 0 5 5 7 10 4 6 -3 10 -1 10 4 0 14 -10 13 -33 0z"/>
<path d="M2948 1033 c7 -3 16 -2 19 1 4 3 -2 6 -13 5 -11 0 -14 -3 -6 -6z"/>
<path d="M3398 1027 c-15 -12 -15 -14 1 -24 16 -10 19 -8 19 13 0 13 -1 24 -2
24 0 0 -9 -6 -18 -13z"/>
<path d="M3700 1030 c0 -5 7 -10 16 -10 8 0 12 -4 9 -10 -3 -5 -1 -10 4 -10
14 0 14 13 -1 28 -15 15 -28 16 -28 2z"/>
<path d="M2895 1020 c-8 -13 5 -13 25 0 13 8 13 10 -2 10 -9 0 -20 -4 -23 -10z"/>
<path d="M4020 1020 c-9 -6 -10 -10 -3 -10 6 0 15 5 18 10 8 12 4 12 -15 0z"/>
<path d="M3310 1011 c13 -10 13 -12 0 -22 -13 -9 -12 -10 3 -5 10 3 26 6 35 6
22 0 4 16 -28 25 -19 5 -22 4 -10 -4z"/>
<path d="M2820 1000 c0 -5 7 -10 16 -10 8 0 12 5 9 10 -3 6 -10 10 -16 10 -5
0 -9 -4 -9 -10z"/>
<path d="M3870 996 c0 -8 -6 -16 -12 -19 -7 -2 -10 -7 -7 -11 3 -3 14 2 23 13
11 12 14 21 7 26 -6 3 -11 0 -11 -9z"/>
<path d="M3680 985 c-8 -9 -8 -15 -2 -15 12 0 26 19 19 26 -2 2 -10 -2 -17
-11z"/>
<path d="M3785 990 c-3 -5 -1 -10 4 -10 6 0 11 5 11 10 0 6 -2 10 -4 10 -3 0
-8 -4 -11 -10z"/>
<path d="M3965 990 c28 -12 37 -12 30 0 -3 6 -16 10 -28 9 -21 0 -21 -1 -2 -9z"/>
<path d="M3158 983 c7 -3 16 -2 19 1 4 3 -2 6 -13 5 -11 0 -14 -3 -6 -6z"/>
<path d="M3330 970 c0 -5 4 -10 9 -10 6 0 13 5 16 10 3 6 -1 10 -9 10 -9 0
-16 -4 -16 -10z"/>
<path d="M3705 970 c-3 -6 1 -7 9 -4 18 7 21 14 7 14 -6 0 -13 -4 -16 -10z"/>
<path d="M3892 971 c-11 -7 -11 -9 0 -14 9 -3 15 1 15 9 0 8 -1 14 -1 14 -1 0
-7 -4 -14 -9z"/>
<path d="M3228 963 c6 -2 18 -2 25 0 6 3 1 5 -13 5 -14 0 -19 -2 -12 -5z"/>
<path d="M3380 960 c8 -5 20 -10 25 -10 6 0 3 5 -5 10 -8 5 -19 10 -25 10 -5
0 -3 -5 5 -10z"/>
<path d="M3825 960 c-3 -5 -1 -10 4 -10 6 0 11 5 11 10 0 6 -2 10 -4 10 -3 0
-8 -4 -11 -10z"/>
<path d="M3340 940 c0 -5 5 -10 11 -10 5 0 7 5 4 10 -3 6 -8 10 -11 10 -2 0
-4 -4 -4 -10z"/>
<path d="M3228 933 c7 -3 16 -2 19 1 4 3 -2 6 -13 5 -11 0 -14 -3 -6 -6z"/>
<path d="M3685 930 c-3 -5 -1 -10 4 -10 6 0 11 5 11 10 0 6 -2 10 -4 10 -3 0
-8 -4 -11 -10z"/>
<path d="M3660 900 c8 -5 20 -10 25 -10 6 0 3 5 -5 10 -8 5 -19 10 -25 10 -5
0 -3 -5 5 -10z"/>
<path d="M3820 889 c0 -5 5 -7 10 -4 6 3 10 8 10 11 0 2 -4 4 -10 4 -5 0 -10
-5 -10 -11z"/>
<path d="M3675 870 c-3 -6 1 -7 9 -4 18 7 21 14 7 14 -6 0 -13 -4 -16 -10z"/>
<path d="M3920 860 c-9 -6 -10 -10 -3 -10 6 0 15 5 18 10 8 12 4 12 -15 0z"/>
<path d="M3071 840 c0 -8 4 -22 9 -30 12 -18 12 -2 0 25 -6 13 -9 15 -9 5z"/>
<path d="M3645 820 c-3 -5 -1 -10 4 -10 6 0 11 5 11 10 0 6 -2 10 -4 10 -3 0
-8 -4 -11 -10z"/>
<path d="M3670 813 c0 -5 5 -15 11 -23 9 -12 10 -12 5 4 -5 14 -2 17 9 12 9
-3 13 -2 10 4 -7 12 -35 14 -35 3z"/>
<path d="M3890 800 c-12 -7 -10 -9 7 -7 12 0 19 5 17 9 -6 10 -6 10 -24 -2z"/>
<path d="M3145 790 c-3 -5 -1 -10 4 -10 6 0 11 5 11 10 0 6 -2 10 -4 10 -3 0
-8 -4 -11 -10z"/>
<path d="M3195 790 c3 -5 8 -10 11 -10 2 0 4 5 4 10 0 6 -5 10 -11 10 -5 0 -7
-4 -4 -10z"/>
<path d="M3100 771 c0 -6 9 -15 20 -21 13 -7 20 -7 20 -1 0 6 -9 15 -20 21
-13 7 -20 7 -20 1z"/>
<path d="M3910 770 c-9 -6 -10 -10 -3 -10 6 0 15 5 18 10 8 12 4 12 -15 0z"/>
<path d="M3160 730 c0 -12 28 -25 36 -17 3 3 -4 10 -15 17 -15 7 -21 7 -21 0z"/>
</g>
</svg>
